<?xml version="1.0" encoding="utf-8"?>
<!-- Generator: Adobe Illustrator 25.2.1, SVG Export Plug-In . SVG Version: 6.00 Build 0)  -->
<svg version="1.1" id="bg-2" xmlns="http://www.w3.org/2000/svg" xmlns:xlink="http://www.w3.org/1999/xlink" x="0px" y="0px"
	 viewBox="0 0 286.2 200.3" style="enable-background:new 0 0 286.2 200.3;" xml:space="preserve">
<style type="text/css">
	.st0{fill:#F8F8FF;}
	.st1{fill:#BAC5F4;}
	.st2{fill:#E1E6FB;}
</style>
<g id="Layer_1">
	<path class="st0" d="M27.5,106C23.2,77.4,13.6,74.9,6.2,60.4c-6.7-13.1-12.1-34.6,6.8-50C42.5-13.4,78.5,11,78.5,11
		s57.2,32.8,67.2,34.4c10,1.7,34.4,18.3,65-1.7s56.6-18.3,65-3.3c8.3,15-10.5,58.3-15,67.2c-4.4,8.9,2.2,36.6,9.4,47.7
		s30,45.5-18.9,44.4c-48.9-1.1-195.4,0.6-195.4,0.6s-52.6-1-43.3-52.2C20.3,105.4,29.1,117.1,27.5,106z"/>
	<circle class="st1" cx="43.6" cy="24.3" r="11.1"/>
	<circle class="st1" cx="32.5" cy="125.3" r="7.5"/>
	<circle class="st1" cx="129.8" cy="28.5" r="4.2"/>
	<ellipse class="st1" cx="275.1" cy="165.9" rx="11.1" ry="11.1"/>
	<circle class="st1" cx="6.4" cy="26.8" r="4.2"/>
	<circle class="st2" cx="77.7" cy="165.1" r="19.7"/>
	<circle class="st2" cx="207.9" cy="180.9" r="13.3"/>
	<ellipse transform="matrix(0.1602 -0.9871 0.9871 0.1602 106.8603 349.7992)" class="st2" cx="259" cy="112.1" rx="7.2" ry="7.2"/>
	<circle class="st2" cx="205.1" cy="47.1" r="14.4"/>
	<circle class="st2" cx="72.7" cy="8.5" r="6.9"/>
	<circle class="st2" cx="50.5" cy="146.8" r="6.9"/>
	<circle class="st1" cx="274.3" cy="66.3" r="6.9"/>
	<circle class="st1" cx="263.1" cy="184" r="7.5"/>
	<circle class="st1" cx="279.8" cy="187.9" r="4.2"/>
</g>
</svg>
