<?xml version="1.0" standalone="no"?>
<!DOCTYPE svg PUBLIC "-//W3C//DTD SVG 20010904//EN"
 "http://www.w3.org/TR/2001/REC-SVG-20010904/DTD/svg10.dtd">
<svg version="1.0" xmlns="http://www.w3.org/2000/svg"
 width="1446.000000pt" height="594.000000pt" viewBox="0 0 1446.000000 594.000000"
 preserveAspectRatio="xMidYMid meet">

<g transform="translate(0.000000,594.000000) scale(0.100000,-0.100000)"
fill="#000000" stroke="none">
<path d="M4713 5824 c-13 -14 -23 -29 -23 -34 0 -5 -9 -14 -20 -20 -11 -6 -20
-17 -20 -25 0 -8 -6 -18 -13 -22 -6 -4 -24 -24 -39 -43 -15 -19 -55 -64 -89
-100 -34 -36 -98 -109 -141 -163 -44 -54 -106 -125 -139 -159 -32 -33 -59 -64
-59 -69 0 -5 -9 -13 -20 -19 -11 -6 -20 -15 -20 -21 0 -13 -76 -104 -149 -178
-29 -30 -89 -99 -133 -153 -44 -54 -106 -126 -139 -160 -32 -33 -59 -64 -59
-69 0 -5 -9 -13 -20 -19 -11 -6 -20 -15 -20 -21 0 -13 -71 -98 -150 -181 -66
-70 -65 -69 -154 -177 -38 -47 -94 -110 -123 -139 -29 -30 -53 -58 -53 -63 0
-4 -9 -13 -20 -19 -11 -6 -20 -16 -20 -22 0 -13 -72 -99 -150 -180 -30 -31
-68 -73 -85 -94 -77 -95 -144 -173 -192 -222 -29 -30 -53 -56 -53 -60 0 -3 -7
-12 -15 -21 -8 -9 -38 -45 -67 -81 -29 -36 -79 -92 -110 -125 -77 -80 -80 -84
-114 -130 -32 -44 -70 -87 -156 -178 -32 -33 -58 -62 -58 -64 0 -9 -132 -166
-192 -228 -79 -83 -80 -83 -125 -145 -23 -30 -78 -93 -122 -139 -45 -47 -81
-86 -81 -89 0 -8 -134 -166 -192 -227 -79 -83 -80 -83 -125 -145 -23 -30 -78
-93 -122 -139 -45 -47 -81 -86 -81 -89 0 -8 -134 -167 -190 -224 -60 -63 -85
-91 -115 -134 -30 -42 -101 -123 -161 -182 -30 -29 -54 -55 -54 -59 0 -9 -132
-165 -187 -221 -29 -30 -53 -56 -53 -59 0 -3 -10 -16 -22 -28 -13 -12 -32 -34
-43 -50 -29 -42 -65 -85 -102 -122 l-32 -33 25 -25 c14 -14 27 -25 31 -25 9 0
165 -132 221 -187 30 -29 58 -53 63 -53 4 0 13 -9 19 -20 19 -35 49 -23 116
46 35 37 64 69 64 72 0 8 134 166 190 224 60 63 85 91 115 134 30 42 101 123
161 182 30 29 54 55 54 59 0 9 130 163 190 225 60 63 85 91 115 134 30 42 101
123 161 182 30 29 54 55 54 59 0 9 132 165 187 221 29 30 53 58 53 63 0 4 9
13 20 19 11 6 20 17 20 25 0 8 6 18 13 22 6 4 25 25 40 46 16 21 56 66 89 100
34 34 96 106 140 160 44 54 106 125 139 159 32 33 59 64 59 69 0 5 9 13 20 19
11 6 20 15 20 21 0 13 76 104 149 178 29 30 89 99 133 153 44 54 106 126 139
160 32 33 59 64 59 69 0 5 9 13 20 19 11 6 20 15 20 21 0 13 76 104 149 178
29 30 89 99 133 153 44 54 106 126 139 160 32 33 59 64 59 69 0 5 9 13 20 19
11 6 20 15 20 21 0 13 76 104 149 178 29 30 89 99 133 153 44 54 106 126 139
160 32 33 59 64 59 69 0 5 9 13 20 19 11 6 20 16 20 22 0 13 72 99 150 180 30
31 69 73 85 94 77 95 144 173 192 222 29 30 53 56 53 60 0 3 7 12 15 21 8 9
38 45 67 81 29 36 77 91 108 122 30 32 64 68 75 81 11 12 26 27 33 31 10 6 80
-58 240 -221 197 -199 427 -441 527 -552 16 -19 49 -53 73 -77 23 -23 42 -44
42 -46 0 -3 98 -104 218 -225 263 -267 345 -353 582 -611 41 -45 172 -180 290
-300 188 -191 420 -434 515 -541 16 -19 49 -53 73 -77 23 -23 42 -44 42 -46 0
-3 98 -104 218 -225 263 -267 345 -353 582 -611 41 -45 172 -180 290 -300 202
-205 448 -464 515 -541 34 -39 88 -96 196 -208 42 -43 79 -87 83 -99 3 -11 32
-42 63 -70 32 -27 103 -92 158 -146 119 -114 147 -137 172 -140 38 -3 63 2 63
14 0 6 7 18 15 27 8 9 38 45 67 81 29 36 79 92 110 125 77 80 80 84 114 130
32 44 70 87 157 178 31 33 57 62 57 64 0 9 132 166 192 228 79 83 80 83 125
145 23 30 78 93 122 139 45 47 81 86 81 89 0 8 134 166 192 227 79 83 80 83
125 145 23 30 78 93 122 139 45 47 81 86 81 89 0 8 134 167 190 224 60 63 85
91 115 134 30 42 101 123 161 182 30 29 54 55 54 59 0 9 132 165 187 221 29
30 53 56 53 59 0 3 10 16 23 28 12 12 31 34 42 50 35 50 68 88 142 164 40 40
73 75 73 78 0 9 134 167 187 221 29 30 53 58 53 63 0 4 9 13 20 19 11 6 20 17
20 25 0 8 6 18 13 22 6 4 25 25 40 46 16 21 56 66 89 100 34 34 96 106 140
160 44 54 106 125 139 159 32 33 59 64 59 69 0 5 9 13 20 19 11 6 20 15 20 21
0 13 76 104 149 178 29 30 89 99 133 153 44 54 106 126 139 160 32 33 59 64
59 69 0 5 9 13 20 19 11 6 20 15 20 21 0 13 76 104 149 178 29 30 89 99 133
153 44 54 106 126 139 160 32 33 59 64 59 69 0 5 9 13 20 19 11 6 20 15 20 21
0 13 76 104 148 177 28 30 52 62 52 72 0 18 -84 110 -100 110 -5 0 -14 9 -20
20 -6 11 -17 20 -25 20 -8 0 -18 6 -22 13 -4 6 -25 25 -46 40 -21 16 -65 55
-99 88 -50 48 -66 59 -85 54 -13 -3 -23 -10 -23 -17 0 -13 -71 -98 -150 -180
-30 -31 -68 -73 -85 -94 -77 -95 -144 -173 -192 -222 -29 -30 -53 -56 -53 -60
0 -3 -7 -12 -15 -21 -8 -9 -38 -45 -67 -81 -29 -36 -79 -92 -110 -125 -77 -80
-80 -84 -114 -130 -32 -44 -70 -87 -156 -178 -32 -33 -58 -62 -58 -64 0 -3
-16 -25 -36 -49 -42 -50 -76 -64 -102 -41 -42 39 -60 54 -82 70 -12 9 -46 38
-74 65 -50 48 -170 143 -241 192 -20 14 -42 30 -48 35 -7 6 -39 26 -72 45 -33
18 -78 47 -100 65 -22 17 -47 34 -55 38 -8 4 -33 18 -55 32 -22 13 -57 34 -77
45 -21 11 -38 25 -38 30 0 6 -8 10 -19 10 -10 0 -29 8 -42 18 -13 10 -51 30
-84 46 -33 15 -67 32 -75 37 -8 5 -22 12 -30 15 -8 3 -37 16 -65 29 -27 13
-76 35 -107 49 -31 14 -60 31 -63 36 -3 6 -17 10 -30 10 -22 0 -56 13 -150 56
-16 8 -52 20 -80 28 -27 8 -81 26 -120 41 -38 14 -90 31 -115 35 -25 5 -63 16
-85 24 -22 8 -53 15 -70 16 -16 0 -43 7 -59 15 -15 8 -58 20 -94 25 -35 6 -73
15 -82 20 -9 5 -65 14 -124 20 -59 6 -118 15 -131 20 -14 5 -87 14 -163 20
-75 6 -153 15 -172 20 -50 13 -573 14 -645 1 -33 -6 -116 -14 -185 -17 -69 -3
-158 -15 -199 -25 -41 -10 -93 -19 -115 -19 -23 -1 -59 -7 -81 -16 -22 -8 -67
-17 -100 -20 -33 -3 -86 -14 -118 -25 -31 -10 -67 -19 -80 -19 -12 -1 -40 -9
-62 -20 -22 -11 -51 -20 -65 -20 -14 0 -43 -9 -65 -20 -22 -11 -51 -20 -65
-20 -14 0 -43 -9 -65 -20 -22 -11 -48 -19 -58 -20 -9 0 -34 -9 -54 -20 -21
-11 -43 -20 -50 -20 -7 0 -30 -9 -50 -20 -21 -11 -44 -20 -51 -20 -7 0 -30 -8
-50 -19 -20 -10 -53 -26 -72 -34 -126 -56 -464 -229 -489 -250 -9 -8 -42 -30
-74 -48 -79 -46 -86 -50 -132 -82 -103 -70 -206 -144 -232 -167 -16 -14 -45
-36 -65 -50 -19 -14 -68 -54 -108 -90 -40 -36 -82 -72 -93 -80 -12 -8 -85 -80
-164 -160 l-143 -144 -213 216 c-266 270 -364 373 -577 606 -41 46 -139 147
-217 226 -79 79 -143 146 -143 149 0 3 -76 82 -169 175 -150 150 -208 197
-240 191 -3 -1 -16 -12 -28 -25z m5337 -674 c102 -6 210 -17 240 -25 30 -8 70
-15 90 -15 19 0 53 -5 75 -11 22 -6 81 -19 130 -29 98 -20 156 -35 225 -57 25
-8 62 -18 82 -22 21 -5 43 -13 50 -19 7 -6 36 -16 63 -23 28 -7 59 -18 70 -26
11 -7 29 -13 40 -13 11 0 36 -8 55 -19 19 -10 49 -21 67 -25 17 -4 37 -14 44
-22 6 -8 20 -14 31 -14 10 0 36 -9 56 -20 20 -11 64 -32 97 -47 33 -15 66 -33
73 -40 7 -7 20 -13 28 -13 8 0 38 -14 67 -30 75 -44 79 -47 107 -59 36 -17 67
-36 87 -53 10 -8 43 -29 73 -46 30 -17 70 -45 88 -61 18 -17 36 -31 38 -31 3
0 20 -11 38 -25 18 -14 36 -25 41 -25 8 0 69 -46 125 -95 20 -16 62 -52 94
-80 131 -111 138 -120 130 -151 -7 -31 -102 -150 -196 -249 -79 -83 -80 -83
-125 -145 -23 -30 -78 -93 -122 -139 -45 -47 -81 -86 -81 -89 0 -8 -134 -167
-190 -224 -60 -63 -85 -91 -115 -134 -30 -42 -101 -123 -161 -182 -30 -29 -54
-55 -54 -59 0 -9 -132 -165 -187 -221 -29 -30 -53 -56 -53 -59 0 -3 -10 -16
-22 -28 -13 -12 -32 -34 -43 -50 -35 -50 -68 -88 -142 -164 -40 -40 -73 -75
-73 -78 0 -9 -134 -167 -187 -221 -29 -30 -53 -58 -53 -63 0 -4 -9 -13 -20
-19 -11 -6 -20 -17 -20 -25 0 -8 -6 -18 -13 -22 -6 -4 -25 -25 -40 -46 -16
-21 -56 -66 -89 -100 -34 -34 -96 -106 -140 -160 -44 -54 -106 -125 -139 -159
-32 -33 -59 -64 -59 -69 0 -5 -9 -13 -20 -19 -11 -6 -20 -15 -20 -21 0 -13
-76 -104 -149 -178 -29 -30 -88 -98 -131 -151 -121 -148 -143 -170 -170 -170
-24 0 -129 102 -405 392 -76 80 -116 123 -285 307 -41 45 -167 175 -280 289
-113 115 -270 278 -349 363 -80 85 -152 161 -160 170 -9 9 -41 44 -71 78 -30
33 -154 162 -275 285 -228 231 -332 339 -448 466 -166 181 -224 242 -429 451
-120 121 -218 226 -218 232 0 25 42 78 146 184 60 61 136 131 169 157 33 26
67 52 75 60 15 14 166 131 210 165 82 61 341 221 357 221 6 0 15 6 21 13 10
12 218 118 332 169 25 11 62 29 82 39 20 11 45 19 54 19 10 0 25 6 33 14 9 8
32 19 51 24 19 6 80 27 135 46 55 20 108 36 118 36 10 0 31 7 46 15 16 8 55
18 87 24 33 5 73 16 89 25 17 9 46 16 65 16 19 0 67 9 105 20 38 11 88 20 110
20 22 0 76 9 120 20 59 15 118 20 225 21 80 1 192 4 250 8 114 7 169 5 450 -9z"/>
<path d="M4625 2310 c-27 -11 -61 -20 -75 -20 -14 0 -43 -9 -65 -20 -22 -11
-47 -20 -55 -20 -8 -1 -37 -15 -65 -31 -27 -16 -61 -35 -75 -42 -135 -67 -306
-235 -405 -399 -26 -43 -75 -142 -75 -152 0 -6 -9 -28 -20 -49 -11 -20 -20
-46 -20 -57 0 -11 -9 -46 -20 -78 -18 -50 -20 -82 -20 -257 0 -175 2 -207 20
-257 11 -32 20 -67 20 -78 0 -11 9 -37 20 -57 11 -21 20 -46 20 -56 0 -10 9
-30 20 -44 11 -14 20 -33 20 -43 0 -9 9 -25 20 -35 11 -10 20 -22 20 -27 0
-38 245 -308 293 -324 9 -3 17 -10 17 -15 0 -5 10 -13 23 -18 12 -5 47 -25 77
-45 30 -20 59 -36 64 -36 5 0 27 -8 50 -19 73 -33 151 -61 171 -61 11 0 56 -9
100 -20 109 -27 273 -27 374 0 41 11 87 20 103 20 15 0 45 9 65 20 21 11 45
20 53 20 22 0 188 86 240 125 25 19 49 34 54 34 17 2 201 195 241 255 46 68
105 175 105 192 0 6 7 17 15 24 8 7 15 24 15 39 0 14 8 42 18 61 11 19 22 61
26 92 3 32 13 83 21 115 19 73 19 203 0 276 -8 32 -18 83 -21 115 -4 31 -15
73 -26 92 -10 19 -18 44 -18 55 0 11 -6 29 -13 40 -8 11 -19 35 -25 53 -6 17
-27 56 -46 86 -20 29 -36 56 -36 60 0 17 -125 159 -187 213 -37 32 -75 66 -85
76 -10 9 -22 17 -27 17 -4 0 -19 9 -33 19 -32 25 -175 101 -191 101 -7 0 -29
9 -50 20 -20 11 -48 20 -62 20 -14 0 -51 9 -82 20 -50 17 -82 20 -248 19 -160
-1 -198 -4 -240 -19z"/>
</g>
</svg>
