<?xml version="1.0" standalone="no"?>
<!DOCTYPE svg PUBLIC "-//W3C//DTD SVG 20010904//EN" "http://www.w3.org/TR/2001/REC-SVG-20010904/DTD/svg10.dtd">
<svg version="1.0" xmlns="http://www.w3.org/2000/svg"
 width="474.000000pt" height="349.000000pt" viewBox="0 0 474.000000 349.000000"
 preserveAspectRatio="xMidYMid meet">
<g transform="translate(0.000000,349.000000) scale(0.100000,-0.100000)" fill="#000000" stroke="none">
<path d="M1023 1117 l-582 -672 47 -42 c26 -23 50 -42 53 -43 3 0 245 277 538
615 293 338 536 617 541 620 4 3 245 -244 535 -548 657 -689 677 -708 691
-705 6 2 219 244 474 538 255 294 518 597 584 674 l120 138 -50 44 c-27 24
-51 43 -54 43 -3 0 -66 -72 -140 -159 -74 -87 -138 -159 -142 -159 -5 -1 -25
14 -45 33 -47 41 -158 113 -238 154 -263 132 -614 154 -888 55 -156 -56 -292
-136 -408 -242 l-67 -61 -187 195 c-103 107 -190 195 -194 195 -3 0 -268 -303
-588 -673z m1955 488 c135 -13 297 -74 432 -163 91 -59 125 -95 113 -115 -14
-24 -687 -797 -694 -797 -7 0 -722 747 -727 760 -4 11 104 106 173 152 87 58
208 112 305 138 86 22 235 39 300 34 19 -2 64 -6 98 -9z"/>
<path d="M1547 896 c-159 -57 -236 -222 -177 -380 23 -61 94 -134 156 -162 23
-10 67 -17 109 -18 266 -4 391 321 193 499 -77 69 -189 93 -281 61z"/>
</g>
</svg>
