<?xml version="1.0" standalone="no"?>
<!DOCTYPE svg PUBLIC "-//W3C//DTD SVG 20010904//EN"
 "http://www.w3.org/TR/2001/REC-SVG-20010904/DTD/svg10.dtd">
<svg version="1.0" xmlns="http://www.w3.org/2000/svg"
 width="1643.000000pt" height="507.000000pt" viewBox="0 0 1643.000000 507.000000"
 preserveAspectRatio="xMidYMid meet">

<g transform="translate(0.000000,507.000000) scale(0.100000,-0.100000)"
fill="#000000" stroke="none">
<path d="M8740 2500 l0 -2270 1295 0 1295 0 0 2270 0 2270 -1295 0 -1295 0 0
-2270z m986 1707 l24 -28 0 -1495 0 -1496 -29 -29 -29 -29 -296 0 c-312 0
-335 3 -355 47 -16 35 -16 2982 0 3017 7 14 24 30 38 35 15 6 149 9 324 8
l299 -2 24 -28z m1296 5 l23 -23 3 -1484 c2 -1620 5 -1543 -53 -1565 -15 -6
-150 -10 -321 -10 l-295 0 -24 25 -25 24 0 1501 c0 1043 3 1507 11 1521 6 11
20 24 32 29 12 5 158 8 324 7 300 -2 303 -2 325 -25z"/>
<path d="M4815 4254 c-250 -15 -332 -32 -355 -73 -7 -13 -10 -507 -10 -1509 0
-1451 0 -1490 19 -1513 18 -23 26 -24 160 -27 l141 -4 30 30 30 30 0 602 0
602 23 -6 c49 -14 523 -19 636 -7 541 60 832 292 907 722 23 132 15 421 -15
529 -90 331 -332 524 -758 606 -70 13 -157 17 -418 19 -181 1 -357 1 -390 -1z
m623 -324 c438 -47 608 -235 588 -650 -3 -69 -12 -154 -21 -189 -48 -196 -193
-323 -426 -371 -129 -27 -276 -34 -531 -25 l-218 7 0 609 c0 335 3 610 8 610
4 1 59 5 122 9 185 11 373 11 478 0z"/>
<path d="M15135 4249 c-199 -29 -337 -90 -445 -199 -116 -115 -167 -232 -190
-435 -13 -116 -13 -1738 0 -1860 13 -122 33 -195 80 -291 69 -141 197 -247
364 -299 170 -55 230 -60 626 -58 201 0 425 4 499 8 177 9 171 3 171 178 0 90
-4 137 -12 145 -9 9 -129 12 -478 12 -486 0 -593 6 -687 42 -70 26 -134 88
-159 154 -17 45 -19 89 -22 492 l-3 442 654 0 654 0 27 25 c25 23 26 28 26
137 -1 117 -6 134 -47 156 -16 9 -196 12 -668 12 l-646 0 3 378 c5 433 8 452
82 527 92 91 196 105 801 105 337 0 454 3 463 12 8 8 12 55 12 143 0 114 -2
134 -18 148 -14 13 -56 19 -193 27 -208 12 -809 11 -894 -1z"/>
<path d="M250 4228 c-13 -8 -30 -25 -37 -38 -10 -20 -12 -333 -10 -1518 l2
-1494 28 -24 c27 -23 35 -24 162 -24 127 0 135 1 162 24 l28 24 0 1506 0 1505
-23 23 c-21 21 -32 23 -155 26 -93 2 -139 -1 -157 -10z"/>
<path d="M1366 4230 c-41 -13 -74 -48 -86 -89 -15 -53 -14 -2908 1 -2950 18
-50 51 -61 188 -61 112 0 122 2 148 24 l28 24 5 1262 5 1262 309 -641 c315
-652 334 -686 399 -710 16 -6 98 -11 183 -11 186 0 217 10 262 89 15 27 160
323 322 659 l295 611 5 -1259 5 -1259 23 -23 c21 -22 30 -23 162 -23 132 0
141 1 162 23 l23 23 0 1489 0 1489 -29 30 c-16 16 -42 35 -59 40 -45 16 -355
9 -390 -9 -32 -15 -7 33 -495 -979 -141 -294 -265 -539 -274 -545 -13 -8 -23
-8 -35 0 -10 6 -180 347 -378 759 -313 651 -364 749 -390 763 -23 13 -66 17
-195 19 -91 1 -178 -2 -194 -7z"/>
<path d="M6988 4233 c-15 -2 -37 -16 -48 -30 -20 -25 -20 -37 -20 -1212 0
-1185 2 -1279 36 -1407 62 -240 247 -404 512 -454 132 -24 316 -30 637 -20
415 13 524 23 548 51 24 30 25 249 1 273 -14 14 -71 16 -477 16 -260 0 -499 5
-545 10 -160 20 -248 72 -293 173 l-24 52 -5 1245 c-5 1363 -1 1278 -64 1300
-28 10 -201 12 -258 3z"/>
<path d="M11743 4230 c-17 -6 -43 -24 -57 -41 l-26 -31 0 -1498 0 -1499 22
-15 c18 -13 51 -16 150 -16 129 0 170 9 185 39 4 9 10 573 13 1254 l5 1237
649 -1232 c356 -678 657 -1243 669 -1256 31 -34 78 -42 242 -42 172 0 208 11
237 70 17 33 18 126 18 1507 l0 1472 -24 28 -24 28 -142 0 -142 0 -24 -28 -24
-28 0 -1232 c0 -695 -4 -1227 -9 -1221 -4 5 -293 551 -641 1214 -348 663 -641
1219 -651 1236 -10 17 -31 36 -46 44 -35 16 -334 24 -380 10z"/>
</g>
</svg>
