<?xml version="1.0" standalone="no"?>
<!DOCTYPE svg PUBLIC "-//W3C//DTD SVG 20010904//EN"
 "http://www.w3.org/TR/2001/REC-SVG-20010904/DTD/svg10.dtd">
<svg version="1.0" xmlns="http://www.w3.org/2000/svg"
 width="1186.000000pt" height="188.000000pt" viewBox="0 0 1186.000000 188.000000"
 preserveAspectRatio="xMidYMid meet">

<g transform="translate(0.000000,188.000000) scale(0.100000,-0.100000)"
fill="#000000" stroke="none">
<path d="M80 930 l0 -870 180 0 180 0 0 550 c0 303 3 550 6 550 10 0 34 -28
34 -40 0 -7 13 -25 30 -40 16 -15 30 -34 30 -42 0 -7 9 -20 20 -28 11 -8 20
-21 20 -30 0 -9 9 -22 20 -30 11 -8 20 -21 20 -30 0 -9 9 -22 20 -30 11 -8 20
-21 20 -30 0 -9 9 -22 20 -30 11 -8 20 -21 20 -28 0 -8 13 -27 30 -42 16 -15
30 -34 30 -42 0 -7 9 -20 20 -28 11 -8 20 -21 20 -30 0 -9 9 -22 20 -30 11 -8
20 -21 20 -30 0 -9 9 -22 20 -30 11 -8 20 -21 20 -28 0 -8 13 -27 30 -42 16
-15 30 -34 30 -42 0 -7 9 -20 20 -28 11 -8 20 -21 20 -30 0 -9 9 -22 20 -30
11 -8 20 -21 20 -30 0 -9 9 -22 20 -30 11 -8 20 -21 20 -28 0 -8 13 -27 30
-42 17 -15 30 -34 30 -42 0 -7 9 -20 20 -28 11 -8 20 -21 20 -30 0 -9 9 -22
20 -30 11 -8 20 -22 20 -32 0 -17 13 -18 160 -18 l160 0 0 870 0 870 -180 0
-180 0 0 -550 c0 -360 -3 -550 -10 -550 -5 0 -10 8 -10 18 0 10 -9 24 -20 32
-11 8 -20 21 -20 28 0 8 -13 27 -30 42 -17 15 -30 34 -30 42 0 7 -9 20 -20 28
-11 8 -20 21 -20 30 0 9 -9 22 -20 30 -11 8 -20 21 -20 30 0 9 -9 22 -20 30
-11 8 -20 21 -20 30 0 9 -9 22 -20 30 -11 8 -20 21 -20 30 0 9 -9 22 -20 30
-11 8 -20 21 -20 28 0 8 -14 27 -30 42 -17 15 -30 34 -30 42 0 7 -9 20 -20 28
-11 8 -20 21 -20 30 0 9 -9 22 -20 30 -11 8 -20 21 -20 30 0 9 -9 22 -20 30
-11 8 -20 21 -20 30 0 9 -9 22 -20 30 -11 8 -20 21 -20 28 0 8 -14 27 -30 42
-16 15 -30 34 -30 42 0 7 -9 20 -20 28 -11 8 -20 21 -20 30 0 9 -9 22 -20 30
-11 8 -20 21 -20 30 0 9 -9 22 -20 30 -11 8 -20 20 -20 28 0 7 -11 24 -25 37
-24 24 -28 25 -180 25 l-155 0 0 -870z"/>
<path d="M4180 1480 c0 -313 0 -320 -20 -320 -13 0 -20 7 -20 18 0 10 -9 24
-20 32 -11 8 -20 20 -20 28 0 18 -66 82 -85 82 -8 0 -15 5 -15 10 0 6 -9 10
-20 10 -11 0 -20 5 -20 10 0 6 -9 10 -20 10 -11 0 -20 5 -20 10 0 6 -50 10
-130 10 -80 0 -130 -4 -130 -10 0 -5 -13 -10 -30 -10 -16 0 -30 -4 -30 -10 0
-5 -9 -10 -20 -10 -11 0 -20 -4 -20 -10 0 -5 -8 -10 -18 -10 -10 0 -24 -9 -32
-20 -8 -11 -20 -20 -28 -20 -17 0 -82 -65 -82 -82 0 -8 -9 -20 -20 -28 -11 -8
-20 -22 -20 -32 0 -10 -4 -18 -10 -18 -5 0 -10 -9 -10 -20 0 -11 -4 -20 -10
-20 -5 0 -10 -9 -10 -20 0 -11 -4 -20 -10 -20 -5 0 -10 -13 -10 -30 0 -16 -4
-30 -10 -30 -5 0 -10 -22 -10 -50 0 -27 -4 -50 -10 -50 -6 0 -10 -63 -10 -170
0 -107 4 -170 10 -170 6 0 10 -22 10 -50 0 -27 5 -50 10 -50 6 0 10 -13 10
-30 0 -16 5 -30 10 -30 6 0 10 -9 10 -20 0 -11 5 -20 10 -20 6 0 10 -9 10 -20
0 -11 5 -20 10 -20 6 0 10 -7 10 -16 0 -9 14 -29 30 -44 17 -15 30 -33 30 -40
0 -15 25 -40 40 -40 7 0 25 -13 40 -30 15 -16 35 -30 44 -30 9 0 16 -4 16 -10
0 -5 14 -10 30 -10 17 0 30 -4 30 -10 0 -5 14 -10 30 -10 17 0 30 -4 30 -10 0
-6 43 -10 110 -10 67 0 110 4 110 10 0 6 14 10 30 10 17 0 30 5 30 10 0 6 8
10 18 10 10 0 24 9 32 20 8 11 20 20 28 20 17 0 62 45 62 62 0 8 9 20 20 28
11 8 20 22 20 32 0 11 7 18 20 18 19 0 20 -7 20 -100 l0 -100 180 0 180 0 0
870 0 870 -180 0 -180 0 0 -320z m-200 -390 c0 -5 9 -10 20 -10 11 0 20 -4 20
-10 0 -5 7 -10 15 -10 19 0 65 -44 65 -62 0 -8 9 -20 20 -28 12 -8 20 -26 20
-42 0 -15 5 -28 10 -28 6 0 10 -18 10 -40 0 -22 5 -40 10 -40 6 0 10 -43 10
-110 0 -67 -4 -110 -10 -110 -5 0 -10 -18 -10 -40 0 -22 -4 -40 -10 -40 -5 0
-10 -9 -10 -20 0 -11 -4 -20 -10 -20 -5 0 -10 -7 -10 -15 0 -9 -25 -40 -55
-70 -45 -46 -60 -55 -90 -55 -19 0 -35 -4 -35 -10 0 -5 -18 -10 -40 -10 -22 0
-40 5 -40 10 0 6 -13 10 -30 10 -16 0 -30 5 -30 10 0 6 -7 10 -15 10 -20 0
-105 85 -105 105 0 8 -4 15 -10 15 -5 0 -10 14 -10 30 0 17 -4 30 -10 30 -5 0
-10 23 -10 50 0 28 -4 50 -10 50 -6 0 -10 33 -10 80 0 47 4 80 10 80 6 0 10
23 10 50 0 28 5 50 10 50 6 0 10 9 10 20 0 11 5 20 10 20 6 0 10 8 10 18 0 10
9 24 20 32 11 8 20 22 20 32 0 11 7 18 18 18 10 0 24 9 32 20 8 12 26 20 42
20 15 0 28 5 28 10 0 6 30 10 70 10 40 0 70 -4 70 -10z"/>
<path d="M2260 1370 c0 -5 -18 -10 -40 -10 -22 0 -40 -4 -40 -10 0 -5 -9 -10
-20 -10 -11 0 -20 -4 -20 -10 0 -5 -13 -10 -28 -10 -16 0 -34 -8 -42 -20 -8
-11 -20 -20 -27 -20 -17 0 -143 -126 -143 -143 0 -7 -9 -19 -20 -27 -11 -8
-20 -22 -20 -32 0 -10 -4 -18 -10 -18 -5 0 -10 -9 -10 -20 0 -11 -4 -20 -10
-20 -5 0 -10 -13 -10 -30 0 -16 -4 -30 -10 -30 -5 0 -10 -18 -10 -40 0 -22 -4
-40 -10 -40 -6 0 -10 -63 -10 -170 0 -107 4 -170 10 -170 6 0 10 -18 10 -40 0
-22 5 -40 10 -40 6 0 10 -13 10 -30 0 -16 5 -30 10 -30 6 0 10 -9 10 -20 0
-11 5 -20 10 -20 6 0 10 -8 10 -18 0 -10 9 -24 20 -32 11 -8 20 -20 20 -27 0
-19 126 -143 145 -143 8 0 15 -4 15 -10 0 -5 9 -10 20 -10 11 0 20 -4 20 -10
0 -5 9 -10 20 -10 11 0 20 -4 20 -10 0 -5 9 -10 20 -10 11 0 20 -4 20 -10 0
-5 18 -10 40 -10 22 0 40 -4 40 -10 0 -6 60 -10 160 -10 100 0 160 4 160 10 0
6 14 10 30 10 17 0 30 5 30 10 0 6 14 10 30 10 17 0 30 5 30 10 0 6 9 10 20
10 11 0 20 5 20 10 0 6 8 10 18 10 10 0 24 9 32 20 8 11 20 20 27 20 17 0 103
86 103 103 0 7 9 19 20 27 11 8 20 22 20 32 0 10 5 18 10 18 6 0 10 9 10 20 0
11 5 20 10 20 6 0 10 9 10 20 0 11 5 20 10 20 6 0 10 14 10 30 0 17 5 30 10
30 6 0 10 23 10 50 0 28 5 50 10 50 6 0 10 50 10 130 0 80 -4 130 -10 130 -5
0 -10 23 -10 50 0 28 -4 50 -10 50 -5 0 -10 14 -10 30 0 17 -4 30 -10 30 -5 0
-10 9 -10 20 0 11 -4 20 -10 20 -5 0 -10 9 -10 20 0 11 -4 20 -10 20 -5 0 -10
8 -10 18 0 10 -9 24 -20 32 -11 8 -20 20 -20 27 0 17 -86 103 -103 103 -7 0
-19 9 -27 20 -8 11 -22 20 -32 20 -10 0 -18 5 -18 10 0 6 -9 10 -20 10 -11 0
-20 5 -20 10 0 6 -13 10 -30 10 -16 0 -30 5 -30 10 0 6 -13 10 -30 10 -16 0
-30 5 -30 10 0 6 -60 10 -160 10 -100 0 -160 -4 -160 -10z m260 -280 c0 -5 7
-10 15 -10 20 0 85 -65 85 -85 0 -8 5 -15 10 -15 6 0 10 -9 10 -20 0 -11 5
-20 10 -20 6 0 10 -9 10 -20 0 -11 5 -20 10 -20 6 0 10 -27 10 -60 0 -33 4
-60 10 -60 6 0 10 -30 10 -70 0 -40 -4 -70 -10 -70 -5 0 -10 -22 -10 -50 0
-27 -4 -50 -10 -50 -5 0 -10 -13 -10 -30 0 -16 -4 -30 -10 -30 -5 0 -10 -9
-10 -20 0 -11 -4 -20 -10 -20 -5 0 -10 -7 -10 -15 0 -20 -45 -65 -65 -65 -8 0
-15 -4 -15 -10 0 -5 -9 -10 -20 -10 -11 0 -20 -4 -20 -10 0 -6 -37 -10 -90
-10 -53 0 -90 4 -90 10 0 6 -7 10 -15 10 -20 0 -105 85 -105 105 0 8 -4 15
-10 15 -5 0 -10 9 -10 20 0 11 -4 20 -10 20 -5 0 -10 18 -10 40 0 22 -4 40
-10 40 -6 0 -10 50 -10 130 0 80 4 130 10 130 6 0 10 18 10 40 0 22 5 40 10
40 6 0 10 9 10 20 0 11 5 20 10 20 6 0 10 7 10 15 0 20 85 105 105 105 8 0 15
5 15 10 0 6 40 10 100 10 60 0 100 -4 100 -10z"/>
<path d="M5260 1370 c0 -5 -18 -10 -40 -10 -22 0 -40 -4 -40 -10 0 -5 -13 -10
-30 -10 -16 0 -30 -4 -30 -10 0 -5 -8 -10 -18 -10 -10 0 -24 -9 -32 -20 -8
-11 -20 -20 -27 -20 -17 0 -143 -126 -143 -143 0 -7 -9 -19 -20 -27 -11 -8
-20 -22 -20 -32 0 -10 -4 -18 -10 -18 -5 0 -10 -9 -10 -20 0 -11 -4 -20 -10
-20 -5 0 -10 -13 -10 -30 0 -16 -4 -30 -10 -30 -5 0 -10 -18 -10 -40 0 -22 -4
-40 -10 -40 -6 0 -10 -63 -10 -170 0 -107 4 -170 10 -170 6 0 10 -18 10 -40 0
-22 5 -40 10 -40 6 0 10 -13 10 -30 0 -16 5 -30 10 -30 6 0 10 -9 10 -20 0
-11 5 -20 10 -20 6 0 10 -9 10 -20 0 -11 5 -20 10 -20 6 0 10 -7 10 -15 0 -19
144 -165 163 -165 7 0 19 -9 27 -20 8 -11 22 -20 32 -20 10 0 18 -4 18 -10 0
-5 14 -10 30 -10 17 0 30 -4 30 -10 0 -5 18 -10 40 -10 22 0 40 -4 40 -10 0
-6 60 -10 160 -10 100 0 160 4 160 10 0 6 18 10 40 10 22 0 40 5 40 10 0 6 14
10 30 10 17 0 30 5 30 10 0 6 9 10 20 10 11 0 20 5 20 10 0 6 8 10 18 10 10 0
24 9 32 20 8 11 20 20 28 20 17 0 82 65 82 82 0 8 9 20 20 28 11 8 20 22 20
32 0 10 5 18 10 18 6 0 10 9 10 20 0 11 5 20 10 20 6 0 10 14 10 30 0 17 5 30
10 30 6 0 10 5 10 10 0 6 -47 10 -120 10 -73 0 -120 4 -120 10 0 6 -21 10 -46
10 -44 0 -74 -16 -74 -40 0 -16 -67 -80 -85 -80 -8 0 -15 -4 -15 -10 0 -5 -13
-10 -30 -10 -16 0 -30 -4 -30 -10 0 -6 -30 -10 -70 -10 -40 0 -70 4 -70 10 0
6 -13 10 -30 10 -16 0 -30 5 -30 10 0 6 -8 10 -18 10 -10 0 -24 9 -32 20 -8
11 -22 20 -32 20 -11 0 -18 7 -18 18 0 10 -9 24 -20 32 -11 8 -20 22 -20 32 0
10 -4 18 -10 18 -6 0 -10 27 -10 60 0 33 -4 60 -10 60 -5 0 -10 5 -10 10 0 7
157 10 450 10 l450 0 0 120 c0 73 -4 120 -10 120 -5 0 -10 23 -10 50 0 28 -4
50 -10 50 -5 0 -10 14 -10 30 0 17 -4 30 -10 30 -5 0 -10 9 -10 20 0 11 -4 20
-10 20 -5 0 -10 9 -10 20 0 11 -4 20 -10 20 -5 0 -10 8 -10 18 0 10 -9 24 -20
32 -11 8 -20 20 -20 28 0 17 -65 82 -82 82 -8 0 -20 9 -28 20 -8 11 -22 20
-32 20 -10 0 -18 5 -18 10 0 6 -9 10 -20 10 -11 0 -20 5 -20 10 0 6 -9 10 -20
10 -11 0 -20 5 -20 10 0 6 -18 10 -40 10 -22 0 -40 5 -40 10 0 6 -57 10 -150
10 -93 0 -150 -4 -150 -10z m220 -260 c0 -5 14 -10 30 -10 17 0 30 -4 30 -10
0 -5 7 -10 15 -10 20 0 85 -65 85 -85 0 -8 5 -15 10 -15 6 0 10 -9 10 -20 0
-11 5 -20 10 -20 6 0 10 -22 10 -50 l0 -50 -270 0 -270 0 0 50 c0 28 5 50 10
50 6 0 10 9 10 20 0 11 5 20 10 20 6 0 10 7 10 15 0 19 44 65 62 65 8 0 20 9
28 20 10 14 26 20 52 20 21 0 38 5 38 10 0 6 27 10 60 10 33 0 60 -4 60 -10z"/>
</g>
<g transform="translate(0.000000,188.000000) scale(0.100000,-0.100000)"
fill="#00d1b2" stroke="none">
<path d="M6280 930 l0 -870 180 0 180 0 0 360 0 360 350 0 350 0 0 150 0 150
-350 0 -350 0 0 210 0 210 390 0 390 0 0 150 0 150 -570 0 -570 0 0 -870z"/>
<path d="M8100 1370 c0 -5 -18 -10 -40 -10 -22 0 -40 -4 -40 -10 0 -5 -13 -10
-30 -10 -16 0 -30 -4 -30 -10 0 -5 -8 -10 -18 -10 -10 0 -24 -9 -32 -20 -8
-11 -20 -20 -27 -20 -17 0 -143 -126 -143 -143 0 -7 -9 -19 -20 -27 -11 -8
-20 -22 -20 -32 0 -10 -4 -18 -10 -18 -5 0 -10 -9 -10 -20 0 -11 -4 -20 -10
-20 -5 0 -10 -13 -10 -30 0 -16 -4 -30 -10 -30 -5 0 -10 -18 -10 -40 0 -22 -4
-40 -10 -40 -6 0 -10 -63 -10 -170 0 -107 4 -170 10 -170 6 0 10 -18 10 -40 0
-22 5 -40 10 -40 6 0 10 -13 10 -30 0 -16 5 -30 10 -30 6 0 10 -9 10 -20 0
-11 5 -20 10 -20 6 0 10 -9 10 -20 0 -11 5 -20 10 -20 6 0 10 -7 10 -15 0 -19
144 -165 163 -165 7 0 19 -9 27 -20 8 -11 22 -20 32 -20 10 0 18 -4 18 -10 0
-5 14 -10 30 -10 17 0 30 -4 30 -10 0 -5 18 -10 40 -10 22 0 40 -4 40 -10 0
-6 60 -10 160 -10 100 0 160 4 160 10 0 6 18 10 40 10 22 0 40 5 40 10 0 6 14
10 30 10 17 0 30 5 30 10 0 6 9 10 20 10 11 0 20 5 20 10 0 6 8 10 18 10 10 0
24 9 32 20 8 11 20 20 28 20 17 0 82 65 82 82 0 8 9 20 20 28 11 8 20 22 20
32 0 10 5 18 10 18 6 0 10 9 10 20 0 11 5 20 10 20 6 0 10 14 10 30 0 17 5 30
10 30 6 0 10 5 10 10 0 6 -47 10 -120 10 -73 0 -120 4 -120 10 0 6 -21 10 -46
10 -44 0 -74 -16 -74 -40 0 -16 -67 -80 -85 -80 -8 0 -15 -4 -15 -10 0 -5 -13
-10 -30 -10 -16 0 -30 -4 -30 -10 0 -6 -30 -10 -70 -10 -40 0 -70 4 -70 10 0
6 -13 10 -30 10 -16 0 -30 5 -30 10 0 6 -8 10 -18 10 -10 0 -24 9 -32 20 -8
11 -22 20 -32 20 -11 0 -18 7 -18 18 0 10 -9 24 -20 32 -11 8 -20 22 -20 32 0
10 -4 18 -10 18 -6 0 -10 27 -10 60 0 33 -4 60 -10 60 -5 0 -10 5 -10 10 0 7
157 10 450 10 l450 0 0 120 c0 73 -4 120 -10 120 -5 0 -10 23 -10 50 0 28 -4
50 -10 50 -5 0 -10 14 -10 30 0 17 -4 30 -10 30 -5 0 -10 9 -10 20 0 11 -4 20
-10 20 -5 0 -10 9 -10 20 0 11 -4 20 -10 20 -5 0 -10 8 -10 18 0 10 -9 24 -20
32 -11 8 -20 20 -20 28 0 17 -65 82 -82 82 -8 0 -20 9 -28 20 -8 11 -22 20
-32 20 -10 0 -18 5 -18 10 0 6 -9 10 -20 10 -11 0 -20 5 -20 10 0 6 -9 10 -20
10 -11 0 -20 5 -20 10 0 6 -18 10 -40 10 -22 0 -40 5 -40 10 0 6 -57 10 -150
10 -93 0 -150 -4 -150 -10z m220 -260 c0 -5 14 -10 30 -10 17 0 30 -4 30 -10
0 -5 7 -10 15 -10 20 0 85 -65 85 -85 0 -8 5 -15 10 -15 6 0 10 -9 10 -20 0
-11 5 -20 10 -20 6 0 10 -22 10 -50 l0 -50 -270 0 -270 0 0 50 c0 28 5 50 10
50 6 0 10 9 10 20 0 11 5 20 10 20 6 0 10 7 10 15 0 19 44 65 62 65 8 0 20 9
28 20 10 14 26 20 52 20 21 0 38 5 38 10 0 6 27 10 60 10 33 0 60 -4 60 -10z"/>
<path d="M9540 1370 c0 -5 -18 -10 -40 -10 -22 0 -40 -4 -40 -10 0 -5 -13 -10
-30 -10 -16 0 -30 -4 -30 -10 0 -5 -8 -10 -18 -10 -10 0 -24 -9 -32 -20 -8
-11 -20 -20 -27 -20 -17 0 -143 -126 -143 -143 0 -7 -9 -19 -20 -27 -11 -8
-20 -22 -20 -32 0 -10 -4 -18 -10 -18 -5 0 -10 -9 -10 -20 0 -11 -4 -20 -10
-20 -5 0 -10 -13 -10 -30 0 -16 -4 -30 -10 -30 -5 0 -10 -18 -10 -40 0 -22 -4
-40 -10 -40 -6 0 -10 -63 -10 -170 0 -107 4 -170 10 -170 6 0 10 -18 10 -40 0
-22 5 -40 10 -40 6 0 10 -13 10 -30 0 -16 5 -30 10 -30 6 0 10 -9 10 -20 0
-11 5 -20 10 -20 6 0 10 -9 10 -20 0 -11 5 -20 10 -20 6 0 10 -7 10 -15 0 -19
144 -165 163 -165 7 0 19 -9 27 -20 8 -11 22 -20 32 -20 10 0 18 -4 18 -10 0
-5 14 -10 30 -10 17 0 30 -4 30 -10 0 -5 18 -10 40 -10 22 0 40 -4 40 -10 0
-6 60 -10 160 -10 100 0 160 4 160 10 0 6 18 10 40 10 22 0 40 5 40 10 0 6 14
10 30 10 17 0 30 5 30 10 0 6 9 10 20 10 11 0 20 5 20 10 0 6 8 10 18 10 10 0
24 9 32 20 8 11 20 20 28 20 17 0 82 65 82 82 0 8 9 20 20 28 11 8 20 22 20
32 0 10 5 18 10 18 6 0 10 9 10 20 0 11 5 20 10 20 6 0 10 14 10 30 0 17 5 30
10 30 6 0 10 5 10 10 0 6 -47 10 -120 10 -73 0 -120 4 -120 10 0 6 -21 10 -46
10 -44 0 -74 -16 -74 -40 0 -16 -67 -80 -85 -80 -8 0 -15 -4 -15 -10 0 -5 -13
-10 -30 -10 -16 0 -30 -4 -30 -10 0 -6 -30 -10 -70 -10 -40 0 -70 4 -70 10 0
6 -13 10 -30 10 -16 0 -30 5 -30 10 0 6 -8 10 -18 10 -10 0 -24 9 -32 20 -8
11 -22 20 -32 20 -11 0 -18 7 -18 18 0 10 -9 24 -20 32 -11 8 -20 22 -20 32 0
10 -4 18 -10 18 -6 0 -10 27 -10 60 0 33 -4 60 -10 60 -5 0 -10 5 -10 10 0 7
157 10 450 10 l450 0 0 120 c0 73 -4 120 -10 120 -5 0 -10 23 -10 50 0 28 -4
50 -10 50 -5 0 -10 14 -10 30 0 17 -4 30 -10 30 -5 0 -10 9 -10 20 0 11 -4 20
-10 20 -5 0 -10 9 -10 20 0 11 -4 20 -10 20 -5 0 -10 8 -10 18 0 10 -9 24 -20
32 -11 8 -20 20 -20 28 0 17 -65 82 -82 82 -8 0 -20 9 -28 20 -8 11 -22 20
-32 20 -10 0 -18 5 -18 10 0 6 -9 10 -20 10 -11 0 -20 5 -20 10 0 6 -9 10 -20
10 -11 0 -20 5 -20 10 0 6 -18 10 -40 10 -22 0 -40 5 -40 10 0 6 -57 10 -150
10 -93 0 -150 -4 -150 -10z m220 -260 c0 -5 14 -10 30 -10 17 0 30 -4 30 -10
0 -5 7 -10 15 -10 20 0 85 -65 85 -85 0 -8 5 -15 10 -15 6 0 10 -9 10 -20 0
-11 5 -20 10 -20 6 0 10 -22 10 -50 l0 -50 -270 0 -270 0 0 50 c0 28 5 50 10
50 6 0 10 9 10 20 0 11 5 20 10 20 6 0 10 7 10 15 0 19 44 65 62 65 8 0 20 9
28 20 10 14 26 20 52 20 21 0 38 5 38 10 0 6 27 10 60 10 33 0 60 -4 60 -10z"/>
<path d="M11420 1480 c0 -313 0 -320 -20 -320 -13 0 -20 7 -20 18 0 10 -9 24
-20 32 -11 8 -20 20 -20 28 0 18 -66 82 -85 82 -8 0 -15 5 -15 10 0 6 -9 10
-20 10 -11 0 -20 5 -20 10 0 6 -9 10 -20 10 -11 0 -20 5 -20 10 0 6 -50 10
-130 10 -80 0 -130 -4 -130 -10 0 -5 -13 -10 -30 -10 -16 0 -30 -4 -30 -10 0
-5 -9 -10 -20 -10 -11 0 -20 -4 -20 -10 0 -5 -8 -10 -18 -10 -10 0 -24 -9 -32
-20 -8 -11 -20 -20 -28 -20 -17 0 -82 -65 -82 -82 0 -8 -9 -20 -20 -28 -11 -8
-20 -22 -20 -32 0 -10 -4 -18 -10 -18 -5 0 -10 -9 -10 -20 0 -11 -4 -20 -10
-20 -5 0 -10 -9 -10 -20 0 -11 -4 -20 -10 -20 -5 0 -10 -13 -10 -30 0 -16 -4
-30 -10 -30 -5 0 -10 -22 -10 -50 0 -27 -4 -50 -10 -50 -6 0 -10 -63 -10 -170
0 -107 4 -170 10 -170 6 0 10 -22 10 -50 0 -27 5 -50 10 -50 6 0 10 -13 10
-30 0 -16 5 -30 10 -30 6 0 10 -9 10 -20 0 -11 5 -20 10 -20 6 0 10 -9 10 -20
0 -11 5 -20 10 -20 6 0 10 -7 10 -16 0 -9 14 -29 30 -44 17 -15 30 -33 30 -40
0 -15 25 -40 40 -40 7 0 25 -13 40 -30 15 -16 35 -30 44 -30 9 0 16 -4 16 -10
0 -5 14 -10 30 -10 17 0 30 -4 30 -10 0 -5 14 -10 30 -10 17 0 30 -4 30 -10 0
-6 43 -10 110 -10 67 0 110 4 110 10 0 6 14 10 30 10 17 0 30 5 30 10 0 6 8
10 18 10 10 0 24 9 32 20 8 11 20 20 28 20 17 0 62 45 62 62 0 8 9 20 20 28
11 8 20 22 20 32 0 11 7 18 20 18 19 0 20 -7 20 -100 l0 -100 180 0 180 0 0
870 0 870 -180 0 -180 0 0 -320z m-200 -390 c0 -5 9 -10 20 -10 11 0 20 -4 20
-10 0 -5 7 -10 15 -10 19 0 65 -44 65 -62 0 -8 9 -20 20 -28 12 -8 20 -26 20
-42 0 -15 5 -28 10 -28 6 0 10 -18 10 -40 0 -22 5 -40 10 -40 6 0 10 -43 10
-110 0 -67 -4 -110 -10 -110 -5 0 -10 -18 -10 -40 0 -22 -4 -40 -10 -40 -5 0
-10 -9 -10 -20 0 -11 -4 -20 -10 -20 -5 0 -10 -7 -10 -15 0 -9 -25 -40 -55
-70 -45 -46 -60 -55 -90 -55 -19 0 -35 -4 -35 -10 0 -5 -18 -10 -40 -10 -22 0
-40 5 -40 10 0 6 -13 10 -30 10 -16 0 -30 5 -30 10 0 6 -7 10 -15 10 -20 0
-105 85 -105 105 0 8 -4 15 -10 15 -5 0 -10 14 -10 30 0 17 -4 30 -10 30 -5 0
-10 23 -10 50 0 28 -4 50 -10 50 -6 0 -10 33 -10 80 0 47 4 80 10 80 6 0 10
23 10 50 0 28 5 50 10 50 6 0 10 9 10 20 0 11 5 20 10 20 6 0 10 8 10 18 0 10
9 24 20 32 11 8 20 22 20 32 0 11 7 18 18 18 10 0 24 9 32 20 8 12 26 20 42
20 15 0 28 5 28 10 0 6 30 10 70 10 40 0 70 -4 70 -10z"/>
</g>
</svg>
