<?xml version="1.0" standalone="no"?>
<!DOCTYPE svg PUBLIC "-//W3C//DTD SVG 20010904//EN"
 "http://www.w3.org/TR/2001/REC-SVG-20010904/DTD/svg10.dtd">
<svg version="1.0" xmlns="http://www.w3.org/2000/svg"
 width="1135.000000pt" height="575.000000pt" viewBox="0 0 1135.000000 575.000000"
 preserveAspectRatio="xMidYMid meet">

<g transform="translate(0.000000,575.000000) scale(0.100000,-0.100000)"
fill="#000000" stroke="none">
<path d="M3631 4914 c-7 -9 -36 -44 -63 -78 -27 -33 -73 -85 -101 -115 -29
-30 -69 -76 -89 -103 -20 -27 -63 -78 -95 -112 -32 -35 -80 -89 -106 -122 -27
-32 -70 -81 -96 -109 -26 -27 -62 -70 -81 -95 -19 -25 -59 -71 -90 -104 -69
-73 -67 -71 -115 -131 -22 -28 -61 -73 -88 -101 -26 -29 -59 -66 -71 -83 -19
-25 -100 -118 -171 -195 -5 -6 -28 -34 -50 -61 -22 -28 -55 -66 -74 -85 -18
-19 -57 -64 -86 -100 -29 -36 -72 -86 -96 -112 -50 -52 -67 -73 -124 -143 -21
-28 -55 -66 -75 -85 -19 -20 -56 -62 -82 -95 -25 -33 -72 -87 -105 -120 -32
-34 -77 -85 -100 -115 -23 -30 -61 -76 -86 -102 -24 -26 -63 -71 -86 -100 -23
-29 -70 -82 -104 -118 -34 -36 -81 -90 -104 -120 -23 -30 -70 -84 -103 -119
-33 -35 -60 -67 -60 -71 0 -5 -3 -10 -7 -12 -5 -1 -33 -32 -63 -68 -30 -36
-65 -74 -76 -85 -12 -11 -39 -42 -59 -70 -21 -27 -61 -74 -89 -104 -28 -30
-58 -62 -66 -71 -8 -9 -32 -38 -53 -65 -21 -27 -60 -73 -87 -101 -27 -29 -66
-74 -86 -100 -21 -27 -60 -73 -88 -103 -28 -30 -58 -62 -66 -70 -8 -9 -33 -40
-55 -69 -21 -28 -42 -52 -45 -52 -3 0 -11 -9 -18 -20 -15 -24 -11 -29 60 -84
38 -28 120 -101 180 -158 10 -10 24 -18 31 -18 14 0 94 86 165 175 22 28 64
76 93 107 30 31 59 63 64 70 6 7 21 27 33 43 13 17 47 55 76 85 28 30 67 75
86 100 19 25 59 71 90 104 69 73 67 71 115 131 22 28 48 59 58 70 26 28 98
111 147 170 24 28 63 73 89 100 25 28 64 73 86 100 22 28 55 66 74 85 18 19
52 58 74 85 32 41 95 113 182 209 6 6 28 34 50 61 21 28 55 66 75 85 19 20 60
67 91 106 31 39 77 90 101 115 24 24 64 71 90 104 25 33 73 89 107 124 33 35
61 67 61 71 0 5 3 10 8 12 4 2 25 25 47 53 22 27 56 66 75 85 19 19 61 67 92
105 31 39 79 94 107 124 28 29 51 57 51 61 0 5 3 10 8 12 4 2 32 32 62 68 30
36 64 74 75 85 11 11 38 43 60 70 39 50 82 99 140 159 17 18 47 54 67 80 21
27 67 80 103 118 36 38 65 72 65 76 1 15 186 212 199 212 5 0 81 -73 169 -162
162 -164 203 -207 335 -352 40 -43 119 -127 177 -186 284 -291 372 -383 450
-468 47 -51 139 -149 205 -216 215 -221 348 -360 450 -470 55 -60 147 -156
205 -216 220 -225 338 -348 425 -444 50 -55 142 -152 205 -217 183 -185 328
-336 430 -447 52 -57 123 -133 158 -168 34 -35 62 -69 62 -75 0 -10 16 -27 81
-83 19 -16 69 -62 111 -103 91 -86 119 -93 155 -40 26 37 62 78 136 157 29 30
68 76 87 102 20 25 66 78 103 117 37 39 67 74 67 78 0 9 42 56 121 139 27 29
64 72 83 98 20 25 43 54 53 64 61 63 133 144 133 150 0 7 38 50 128 147 21 22
53 60 72 85 19 24 49 59 65 76 52 55 99 108 140 159 21 28 55 66 75 85 19 20
56 62 82 95 25 33 73 88 105 122 32 34 69 77 83 94 36 47 99 121 124 144 12
11 42 47 68 80 25 33 71 86 102 118 30 32 75 83 100 115 24 31 65 78 90 105
25 26 61 69 81 95 20 26 64 76 99 112 34 36 79 87 99 115 21 27 64 77 95 111
31 33 85 94 118 135 34 41 77 90 95 109 19 19 52 58 74 85 22 28 55 67 75 89
65 71 75 82 115 132 32 39 121 140 145 164 3 3 23 28 45 55 22 28 60 73 86
100 26 28 64 70 84 95 20 25 60 71 89 104 73 83 72 81 30 118 -21 18 -45 40
-53 49 -9 8 -36 31 -61 50 -24 18 -62 51 -84 72 -21 20 -46 37 -55 37 -9 0
-30 -20 -48 -43 -17 -23 -59 -71 -92 -106 -34 -35 -61 -67 -61 -71 0 -5 -3
-10 -7 -12 -5 -1 -33 -32 -63 -68 -30 -36 -65 -74 -76 -85 -12 -11 -38 -42
-59 -70 -36 -47 -72 -87 -140 -159 -16 -18 -47 -54 -67 -80 -21 -27 -63 -77
-95 -112 -32 -34 -70 -76 -84 -93 -41 -47 -33 -50 -184 83 -71 63 -205 164
-255 192 -19 10 -51 31 -70 45 -19 15 -51 35 -70 46 -72 40 -100 58 -100 66 0
4 -9 7 -19 7 -11 0 -22 4 -26 9 -3 6 -27 20 -53 32 -26 12 -54 25 -62 30 -8 5
-22 12 -30 15 -8 3 -52 24 -96 45 -45 21 -85 39 -89 39 -7 0 -42 14 -110 45
-16 7 -41 16 -55 18 -14 3 -50 15 -80 27 -30 12 -71 25 -90 29 -43 10 -114 29
-160 43 -37 12 -74 20 -175 38 -33 5 -87 15 -120 21 -322 59 -853 47 -1162
-26 -34 -8 -74 -15 -90 -15 -25 0 -67 -11 -158 -42 -16 -5 -46 -13 -65 -17
-19 -4 -45 -13 -57 -19 -12 -7 -33 -12 -47 -12 -14 0 -27 -4 -31 -9 -3 -5 -19
-12 -36 -16 -17 -4 -42 -13 -57 -21 -15 -8 -33 -14 -40 -14 -7 0 -20 -4 -30
-10 -9 -5 -35 -17 -57 -26 -122 -51 -389 -183 -420 -207 -23 -18 -117 -77
-122 -77 -4 0 -29 -17 -57 -38 -28 -21 -71 -52 -96 -70 -136 -99 -221 -172
-358 -309 -57 -57 -107 -103 -111 -103 -10 0 -350 347 -466 474 -103 113 -335
355 -501 523 -135 137 -161 153 -193 117z m3969 -495 c218 -23 586 -110 672
-159 10 -6 24 -10 33 -10 13 0 33 -8 120 -45 91 -40 354 -171 380 -190 17 -12
50 -34 75 -48 25 -15 59 -38 75 -52 45 -37 48 -39 76 -52 22 -10 134 -101 214
-176 16 -15 33 -27 37 -27 16 0 7 -48 -12 -70 -11 -13 -20 -26 -20 -29 0 -3
-21 -29 -46 -56 -25 -28 -63 -68 -83 -90 -20 -22 -52 -60 -71 -85 -19 -24 -42
-52 -50 -61 -72 -77 -121 -132 -155 -174 -22 -27 -55 -66 -74 -85 -18 -19 -57
-64 -86 -100 -29 -36 -72 -86 -96 -112 -50 -52 -67 -73 -124 -143 -21 -28 -55
-66 -75 -85 -19 -20 -56 -62 -82 -95 -25 -33 -68 -83 -95 -111 -26 -27 -64
-70 -83 -94 -51 -64 -110 -132 -134 -155 -12 -11 -46 -52 -77 -91 -31 -39 -77
-90 -101 -115 -24 -24 -61 -66 -81 -94 -21 -27 -61 -74 -90 -105 -29 -30 -71
-80 -95 -110 -24 -30 -69 -82 -100 -115 -31 -33 -75 -83 -97 -110 -67 -84
-107 -125 -124 -125 -15 0 -211 196 -389 390 -54 58 -150 159 -214 225 -252
259 -333 343 -406 424 -104 112 -138 149 -402 421 -126 129 -247 256 -270 283
-59 66 -99 108 -287 298 -89 92 -163 174 -163 183 0 36 235 258 410 387 68 51
171 119 179 119 5 0 19 8 32 19 34 27 138 83 259 141 58 28 118 57 133 65 16
8 35 15 42 15 7 0 26 6 42 14 56 29 101 46 121 46 12 0 23 4 26 9 4 5 25 12
49 16 23 4 47 11 52 15 6 4 30 11 55 15 25 4 50 11 55 15 6 4 39 13 75 19 36
7 103 19 150 27 47 9 128 19 180 23 123 10 543 10 640 0z"/>
<path d="M3660 2362 c-41 -2 -79 -7 -85 -11 -5 -5 -30 -12 -55 -16 -24 -4 -51
-11 -60 -16 -8 -4 -46 -22 -83 -39 -160 -75 -309 -224 -385 -385 -39 -82 -52
-116 -52 -131 0 -8 -7 -37 -16 -63 -12 -38 -15 -79 -11 -192 4 -141 15 -205
43 -262 8 -16 14 -37 14 -47 0 -9 7 -23 15 -30 8 -7 15 -19 15 -26 0 -25 100
-161 158 -215 120 -112 175 -146 330 -203 112 -41 287 -56 381 -32 35 9 75 16
89 16 15 0 36 7 46 15 11 8 27 15 35 15 24 0 143 62 203 106 91 66 238 230
238 267 0 8 7 20 15 27 8 7 15 18 15 25 0 7 7 26 15 41 8 16 15 36 15 44 0 9
4 20 9 25 44 45 45 455 2 498 -6 6 -11 20 -11 30 0 10 -6 31 -14 45 -7 15 -24
47 -36 72 -13 25 -41 70 -63 100 -42 58 -167 183 -204 203 -12 7 -43 23 -70
37 -26 14 -50 28 -53 32 -3 3 -19 10 -35 14 -17 4 -34 10 -40 14 -5 4 -26 11
-45 14 -19 4 -46 11 -60 16 -30 10 -157 16 -260 12z"/>
</g>
</svg>
