<?xml version="1.0" standalone="no"?>
<!DOCTYPE svg PUBLIC "-//W3C//DTD SVG 20010904//EN"
 "http://www.w3.org/TR/2001/REC-SVG-20010904/DTD/svg10.dtd">
<svg version="1.0" xmlns="http://www.w3.org/2000/svg"
 width="876.000000pt" height="132.000000pt" viewBox="0 0 876.000000 132.000000"
 preserveAspectRatio="xMidYMid meet">

<g transform="translate(0.000000,132.000000) scale(0.100000,-0.100000)"
fill="#000" stroke="none">
<path d="M1660 1230 c0 -5 -18 -10 -40 -10 -22 0 -40 -4 -40 -10 0 -5 -13 -10
-30 -10 -16 0 -30 -4 -30 -10 0 -5 -8 -10 -18 -10 -10 0 -24 -9 -32 -20 -8
-11 -20 -20 -27 -20 -17 0 -103 -86 -103 -103 0 -7 -9 -19 -20 -27 -11 -8 -20
-22 -20 -32 0 -10 -4 -18 -10 -18 -5 0 -10 -9 -10 -20 0 -11 -4 -20 -10 -20
-5 0 -10 -13 -10 -30 0 -16 -4 -30 -10 -30 -5 0 -10 -22 -10 -50 0 -27 -4 -50
-10 -50 -6 0 -10 -47 -10 -120 0 -73 4 -120 10 -120 6 0 10 -22 10 -50 0 -27
5 -50 10 -50 6 0 10 -13 10 -30 0 -16 5 -30 10 -30 6 0 10 -8 10 -18 0 -10 9
-24 20 -32 11 -8 20 -21 20 -30 0 -9 9 -22 20 -30 11 -8 20 -20 20 -28 0 -17
24 -42 40 -42 7 0 25 -13 40 -30 15 -16 35 -30 44 -30 9 0 16 -4 16 -10 0 -5
9 -10 20 -10 11 0 20 -4 20 -10 0 -5 14 -10 30 -10 17 0 30 -4 30 -10 0 -5 18
-10 40 -10 22 0 40 -4 40 -10 0 -6 33 -10 80 -10 47 0 80 4 80 10 0 6 23 10
50 10 28 0 50 5 50 10 0 6 14 10 30 10 17 0 30 5 30 10 0 6 8 10 18 10 10 0
24 9 32 20 8 11 20 20 27 20 17 0 123 106 123 123 0 7 9 19 20 27 11 8 20 22
20 32 0 10 5 18 10 18 6 0 10 14 10 30 0 17 5 30 10 30 6 0 10 14 10 30 0 17
5 30 10 30 6 0 10 67 10 180 0 113 -4 180 -10 180 -5 0 -10 18 -10 40 0 22 -4
40 -10 40 -5 0 -10 9 -10 20 0 11 -4 20 -10 20 -5 0 -10 9 -10 20 0 11 -4 20
-10 20 -5 0 -10 7 -10 15 0 20 -145 165 -165 165 -8 0 -15 5 -15 10 0 6 -9 10
-20 10 -11 0 -20 5 -20 10 0 6 -13 10 -30 10 -16 0 -30 5 -30 10 0 6 -13 10
-30 10 -16 0 -30 5 -30 10 0 6 -43 10 -110 10 -67 0 -110 -4 -110 -10z m200
-220 c0 -5 9 -10 20 -10 11 0 20 -4 20 -10 0 -5 7 -10 15 -10 9 0 31 -16 50
-35 19 -19 35 -41 35 -50 0 -8 5 -15 10 -15 6 0 10 -9 10 -20 0 -11 5 -20 10
-20 6 0 10 -13 10 -30 0 -16 5 -30 10 -30 6 0 10 -50 10 -130 0 -80 -4 -130
-10 -130 -5 0 -10 -18 -10 -40 0 -22 -4 -40 -10 -40 -5 0 -10 -9 -10 -20 0
-11 -4 -20 -10 -20 -5 0 -10 -7 -10 -15 0 -19 -44 -65 -62 -65 -8 0 -20 -9
-28 -20 -8 -12 -26 -20 -42 -20 -15 0 -28 -4 -28 -10 0 -6 -33 -10 -80 -10
-47 0 -80 4 -80 10 0 6 -9 10 -20 10 -11 0 -20 5 -20 10 0 6 -7 10 -15 10 -20
0 -105 85 -105 105 0 8 -4 15 -10 15 -5 0 -10 14 -10 30 0 17 -4 30 -10 30 -6
0 -10 27 -10 60 0 33 -4 60 -10 60 -5 0 -10 23 -10 50 0 28 5 50 10 50 6 0 10
23 10 50 0 28 5 50 10 50 6 0 10 14 10 30 0 17 5 30 10 30 6 0 10 7 10 15 0
26 107 125 135 125 14 0 25 5 25 10 0 6 37 10 90 10 53 0 90 -4 90 -10z"/>
<path d="M60 640 l0 -580 120 0 120 0 0 360 c0 353 0 360 20 360 13 0 20 -7
20 -18 0 -10 9 -24 20 -32 11 -8 20 -21 20 -30 0 -9 9 -22 20 -30 11 -8 20
-21 20 -28 0 -8 13 -27 30 -42 16 -15 30 -34 30 -42 0 -7 9 -20 20 -28 11 -8
20 -21 20 -30 0 -9 9 -22 20 -30 11 -8 20 -21 20 -30 0 -9 9 -22 20 -30 11 -8
20 -21 20 -28 0 -8 14 -27 30 -42 16 -15 30 -34 30 -42 0 -7 9 -20 20 -28 11
-8 20 -21 20 -30 0 -9 9 -22 20 -30 11 -8 20 -21 20 -30 0 -9 9 -22 20 -30 11
-8 20 -20 20 -28 0 -7 11 -24 25 -37 23 -23 31 -25 130 -25 l105 0 0 580 0
580 -120 0 -120 0 0 -360 c0 -353 0 -360 -20 -360 -13 0 -20 7 -20 18 0 10 -9
24 -20 32 -11 8 -20 21 -20 28 0 8 -14 27 -30 42 -17 15 -30 34 -30 42 0 7 -9
20 -20 28 -11 8 -20 21 -20 30 0 9 -9 22 -20 30 -11 8 -20 21 -20 30 0 9 -9
22 -20 30 -11 8 -20 21 -20 30 0 9 -9 22 -20 30 -11 8 -20 21 -20 28 0 8 -14
27 -30 42 -17 15 -30 34 -30 42 0 7 -9 20 -20 28 -11 8 -20 21 -20 30 0 9 -9
22 -20 30 -11 8 -20 21 -20 30 0 9 -9 22 -20 30 -11 8 -20 20 -20 28 0 7 -11
24 -25 37 -23 23 -31 25 -130 25 l-105 0 0 -580z"/>
<path d="M2500 640 l0 -580 270 0 c173 0 270 4 270 10 0 6 18 10 40 10 22 0
40 5 40 10 0 6 14 10 30 10 17 0 30 5 30 10 0 6 9 10 20 10 11 0 20 5 20 10 0
6 7 10 15 10 19 0 145 124 145 143 0 7 9 19 20 27 11 8 20 22 20 32 0 10 5 18
10 18 6 0 10 14 10 30 0 17 5 30 10 30 6 0 10 18 10 40 0 22 5 40 10 40 6 0
10 53 10 140 0 87 -4 140 -10 140 -5 0 -10 18 -10 40 0 22 -4 40 -10 40 -5 0
-10 14 -10 30 0 17 -4 30 -10 30 -5 0 -10 9 -10 20 0 11 -4 20 -10 20 -5 0
-10 7 -10 15 0 20 -145 165 -165 165 -8 0 -15 5 -15 10 0 6 -9 10 -20 10 -11
0 -20 5 -20 10 0 6 -9 10 -20 10 -11 0 -20 5 -20 10 0 6 -18 10 -40 10 -22 0
-40 5 -40 10 0 6 -100 10 -280 10 l-280 0 0 -580z m460 370 c0 -5 23 -10 50
-10 28 0 50 -4 50 -10 0 -5 7 -10 15 -10 20 0 125 -105 125 -125 0 -8 5 -15
10 -15 6 0 10 -18 10 -40 0 -22 5 -40 10 -40 6 0 10 -47 10 -120 0 -73 -4
-120 -10 -120 -5 0 -10 -13 -10 -30 0 -16 -4 -30 -10 -30 -5 0 -10 -11 -10
-25 0 -29 -79 -115 -105 -115 -8 0 -15 -4 -15 -10 0 -5 -9 -10 -20 -10 -11 0
-20 -4 -20 -10 0 -6 -57 -10 -150 -10 l-150 0 0 370 0 370 110 0 c67 0 110 -4
110 -10z"/>
<path d="M3660 640 l0 -580 390 0 390 0 0 100 0 100 -270 0 -270 0 0 140 0
140 250 0 250 0 0 100 0 100 -250 0 -250 0 0 140 0 140 270 0 270 0 0 100 0
100 -390 0 -390 0 0 -580z"/>
</g>
<g transform="translate(0.000000,132.000000) scale(0.100000,-0.100000)"
fill="#00d1b2" stroke="none">
<path d="M4860 640 l0 -580 110 0 110 0 0 240 0 240 230 0 230 0 0 100 0 100
-230 0 -230 0 0 140 0 140 260 0 260 0 0 100 0 100 -370 0 -370 0 0 -580z"/>
<path d="M5800 640 l0 -580 380 0 380 0 0 100 0 100 -270 0 -270 0 0 140 0
140 250 0 250 0 0 100 0 100 -250 0 -250 0 0 140 0 140 270 0 270 0 0 100 0
100 -380 0 -380 0 0 -580z"/>
<path d="M6780 640 l0 -580 380 0 380 0 0 100 0 100 -270 0 -270 0 0 140 0
140 250 0 250 0 0 100 0 100 -250 0 -250 0 0 140 0 140 270 0 270 0 0 100 0
100 -380 0 -380 0 0 -580z"/>
<path d="M7760 640 l0 -580 230 0 c147 0 230 4 230 10 0 6 27 10 60 10 33 0
60 4 60 10 0 6 14 10 30 10 17 0 30 5 30 10 0 6 9 10 20 10 11 0 20 5 20 10 0
6 7 10 15 10 20 0 165 145 165 165 0 8 5 15 10 15 6 0 10 9 10 20 0 11 5 20
10 20 6 0 10 9 10 20 0 11 5 20 10 20 6 0 10 18 10 40 0 22 5 40 10 40 6 0 10
63 10 170 0 107 -4 170 -10 170 -5 0 -10 14 -10 30 0 17 -4 30 -10 30 -5 0
-10 14 -10 30 0 17 -4 30 -10 30 -5 0 -10 8 -10 18 0 10 -9 24 -20 32 -11 8
-20 20 -20 28 0 17 -65 82 -82 82 -8 0 -20 9 -28 20 -8 11 -22 20 -32 20 -10
0 -18 5 -18 10 0 6 -9 10 -20 10 -11 0 -20 5 -20 10 0 6 -9 10 -20 10 -11 0
-20 5 -20 10 0 6 -22 10 -50 10 -27 0 -50 5 -50 10 0 6 -90 10 -250 10 l-250
0 0 -580z m500 370 c0 -5 14 -10 30 -10 17 0 30 -4 30 -10 0 -5 7 -10 15 -10
20 0 105 -85 105 -105 0 -8 5 -15 10 -15 6 0 10 -9 10 -20 0 -11 5 -20 10 -20
6 0 10 -27 10 -60 0 -33 4 -60 10 -60 6 0 10 -27 10 -60 0 -33 -4 -60 -10 -60
-5 0 -10 -22 -10 -50 0 -27 -4 -50 -10 -50 -5 0 -10 -13 -10 -30 0 -16 -4 -30
-10 -30 -5 0 -10 -7 -10 -15 0 -20 -65 -85 -85 -85 -8 0 -15 -4 -15 -10 0 -5
-9 -10 -20 -10 -11 0 -20 -4 -20 -10 0 -5 -13 -10 -30 -10 -16 0 -30 -4 -30
-10 0 -6 -50 -10 -130 -10 l-130 0 0 380 0 380 140 0 c87 0 140 -4 140 -10z"/>
</g>
</svg>
