<?xml version="1.0" standalone="no"?>
<!DOCTYPE svg PUBLIC "-//W3C//DTD SVG 20010904//EN"
 "http://www.w3.org/TR/2001/REC-SVG-20010904/DTD/svg10.dtd">
<svg version="1.0" xmlns="http://www.w3.org/2000/svg"
 width="1024pt" height="768pt" viewBox="0 0 1024 768"
>

<g transform="translate(0.000000,768.000000) scale(0.100000,-0.100000)"
fill="#000000" stroke="none">
<path d="M3590 4819 c-72 -6 -97 -11 -107 -25 -18 -25 -19 -1434 -1 -1452 16
-16 140 -16 156 0 9 9 12 89 12 298 l0 285 178 1 c190 0 253 10 359 59 70 32
147 106 177 169 52 109 59 293 17 407 -83 222 -314 297 -791 258z m459 -168
c79 -25 123 -59 152 -118 21 -41 24 -63 24 -153 0 -95 -3 -110 -28 -163 -32
-65 -75 -99 -154 -123 -65 -20 -200 -28 -306 -19 l-87 7 0 293 0 294 58 4
c111 9 278 -2 341 -22z"/>
<path d="M8418 4820 c-125 -23 -217 -80 -257 -159 -37 -73 -41 -130 -41 -594
0 -546 3 -566 106 -656 75 -66 143 -83 359 -88 99 -2 221 -1 270 4 l90 8 3 72
3 71 -263 4 c-239 3 -267 5 -302 23 -78 40 -81 48 -84 301 l-3 224 323 2 323
3 3 58 c2 35 -2 64 -9 73 -9 12 -67 14 -326 14 l-315 0 4 194 c3 220 7 232 84
271 35 18 63 20 302 23 l262 4 0 68 c0 38 -4 71 -9 75 -16 10 -474 15 -523 5z"/>
<path d="M1452 4808 c-17 -17 -17 -1449 0 -1466 16 -16 140 -16 156 0 17 17
17 1449 0 1466 -16 16 -140 16 -156 0z"/>
<path d="M1970 4800 c-20 -20 -20 -33 -20 -733 0 -541 3 -716 12 -725 14 -14
126 -16 148 -2 13 8 16 91 20 615 l5 605 149 -311 c98 -204 158 -316 173 -326
17 -11 44 -14 108 -12 76 4 88 7 103 27 9 12 82 158 162 324 l145 303 3 -604
c1 -426 5 -608 13 -618 17 -19 133 -18 153 3 15 14 16 88 14 731 -3 694 -4
715 -22 729 -26 18 -185 20 -209 2 -9 -7 -92 -173 -185 -368 -133 -278 -173
-355 -188 -355 -14 0 -55 76 -186 350 -92 193 -175 358 -183 368 -12 14 -31
17 -105 17 -77 0 -93 -3 -110 -20z"/>
<path d="M4671 4806 c-9 -10 -11 -173 -9 -627 l3 -614 29 -63 c38 -82 90 -126
181 -155 65 -20 87 -22 310 -20 132 1 254 6 270 11 29 8 30 11 33 74 l3 66
-263 4 c-239 3 -267 5 -302 23 -22 11 -49 33 -60 48 -21 28 -21 40 -24 635 -2
419 -6 610 -14 619 -15 18 -142 18 -157 -1z"/>
<path d="M5722 4808 c-17 -17 -17 -1449 0 -1466 16 -16 140 -16 156 0 17 17
17 1449 0 1466 -16 16 -140 16 -156 0z"/>
<path d="M6252 4808 c-17 -17 -17 -1449 0 -1466 16 -16 140 -16 156 0 17 17
17 1449 0 1466 -16 16 -140 16 -156 0z"/>
<path d="M6776 4804 c-14 -14 -16 -91 -14 -742 l3 -727 68 -3 c42 -2 74 2 83
9 12 10 14 107 14 607 0 335 4 592 9 587 4 -6 146 -271 315 -590 169 -319 316
-588 327 -597 17 -14 40 -18 103 -18 135 0 121 -85 124 739 2 485 -1 718 -8
731 -9 17 -21 20 -79 20 -45 0 -72 -5 -80 -13 -8 -10 -12 -189 -13 -608 l-3
-594 -318 602 c-245 463 -324 602 -340 607 -12 3 -57 6 -99 6 -57 0 -81 -4
-92 -16z"/>
</g>
</svg>
