<svg width="331" height="301" viewBox="0 0 331 301" fill="none" xmlns="http://www.w3.org/2000/svg">
<g clip-path="url(#clip0_35_292)">
<path d="M286.498 255.042H43.6897V213.843H47.4354V183.177C47.4435 175.952 50.3188 169.025 55.4304 163.916C60.542 158.807 67.4724 155.933 74.7013 155.925H255.927C263.156 155.933 270.086 158.807 275.198 163.916C280.309 169.025 283.185 175.952 283.193 183.177V213.843H286.498V255.042Z" fill="#E4E4E4"/>
<path d="M293.077 300.388H280.99V300.168C280.978 289.484 276.726 279.24 269.167 271.685C261.608 264.13 251.359 259.88 240.669 259.868H89.5194C78.8292 259.88 68.5804 264.13 61.0213 271.685C53.4623 279.24 49.2103 289.484 49.1982 300.168V300.388H37.111C34.3572 300.385 31.717 299.291 29.7698 297.344C27.8225 295.398 26.7272 292.759 26.7241 290.007V222.659C23.2142 220.677 20.3594 209.913 22.2137 201.316C23.3774 195.921 26.7368 189.406 36.1325 189.002C45.2789 188.609 52.0678 197.192 52.6742 205.453C53.0028 209.8 51.7253 214.117 49.0836 217.586H49.1982V227.194C69.032 220.841 88.894 217.609 108.236 217.586C128.03 217.606 147.685 220.875 166.418 227.264C205.366 214.673 243.911 214.428 280.99 226.539V217.586H281.104C278.463 214.117 277.185 209.8 277.514 205.453C278.179 196.392 285.595 189.012 294.046 189.002H294.074C304.039 189.002 307.564 194.998 308.766 200.031C310.893 208.938 306.987 220.661 303.464 222.659V290.007C303.461 292.759 302.365 295.398 300.418 297.344C298.471 299.29 295.831 300.385 293.077 300.388V300.388Z" fill="#CACACA"/>
<path d="M225.547 282.367L231.381 286.532L250.234 266.022L241.622 259.875L225.547 282.367Z" fill="#FFB6B6"/>
<path d="M225.42 279.4L227.062 280.573L235.336 282.545L236.91 287.604L236.91 287.604C238.852 288.991 240.163 291.092 240.555 293.445C240.947 295.797 240.388 298.21 239.001 300.151L238.831 300.388L220.019 286.957L225.42 279.4Z" fill="#2F2E41"/>
<path d="M265.083 227.456H222.243C218.248 227.454 214.418 225.866 211.594 223.042C208.77 220.218 207.183 216.389 207.183 212.396C207.183 208.404 208.77 204.574 211.594 201.75C214.418 198.926 218.248 197.338 222.243 197.336H265.083C269.079 197.336 272.912 198.923 275.738 201.747C278.564 204.572 280.151 208.402 280.151 212.396C280.151 216.39 278.564 220.221 275.738 223.045C272.912 225.87 269.079 227.456 265.083 227.456V227.456Z" fill="#2F2E41"/>
<path d="M244.065 122.295L250.975 127.554L259.308 130.114C259.308 130.114 262.753 178.549 265.858 181.652C268.962 184.755 266.162 184.838 266.786 188.868C267.41 192.899 268.926 201.161 268.926 201.161C247.972 212.247 229.908 212.544 215.397 199.572C215.212 198.769 215.306 197.928 215.665 197.186C216.023 196.444 216.625 195.848 217.369 195.495C220.07 194.062 214.88 187.378 217.087 186.26C219.294 185.142 216.19 175.447 216.19 175.447L218.226 155.217L216.617 151.984L220.543 132.197L227.356 129.71L230.077 123.157L244.065 122.295Z" fill="#00D1B2"/>
<path d="M248.394 77.0748C248.363 77.9495 248.524 78.8204 248.866 79.626C249.208 80.4317 249.723 81.1526 250.374 81.7379C251.025 82.3232 251.797 82.7587 252.635 83.0137C253.472 83.2688 254.356 83.3371 255.223 83.214L264.961 102.133L270.387 92.4979L260.307 76.0095C260.004 74.5674 259.182 73.2868 257.996 72.4102C256.811 71.5337 255.346 71.122 253.877 71.2533C252.409 71.3846 251.039 72.0498 250.029 73.1227C249.018 74.1956 248.436 75.6018 248.394 77.0748H248.394Z" fill="#FFB6B6"/>
<path d="M264.794 81.7028L285.682 114.059L285.613 114.208C285.534 114.379 280.804 124.589 276.221 133.94C275.515 135.381 274.813 136.8 274.131 138.16C273.837 138.747 273.548 139.321 273.262 139.884C271.338 143.677 269.656 146.812 268.652 148.301C266.431 151.668 263.125 154.174 259.283 155.404L259.186 155.429L259.094 155.391C257.214 154.598 255.661 153.189 254.691 151.396C253.72 149.602 253.39 147.532 253.754 145.526C255.566 135.85 259.603 126.727 265.547 118.878L268.933 114.417L257.166 88.8463L264.794 81.7028Z" fill="#00D1B2"/>
<path d="M228.706 73.1108C228.737 73.9855 228.576 74.8564 228.234 75.662C227.892 76.4677 227.377 77.1886 226.726 77.7739C226.075 78.3592 225.303 78.7947 224.465 79.0498C223.628 79.3048 222.744 79.3731 221.877 79.25L212.139 98.1687L206.713 88.534L216.793 72.0455C217.096 70.6035 217.919 69.3228 219.104 68.4463C220.289 67.5697 221.755 67.158 223.223 67.2893C224.692 67.4206 226.061 68.0858 227.071 69.1587C228.082 70.2316 228.664 71.6378 228.706 73.1108H228.706Z" fill="#FFB6B6"/>
<path d="M212.306 77.7388L191.418 110.095L191.487 110.244C191.566 110.415 196.296 120.625 200.879 129.977C201.585 131.417 202.287 132.837 202.969 134.196C203.263 134.783 203.552 135.358 203.838 135.92C205.763 139.713 207.444 142.848 208.448 144.337C210.669 147.704 213.975 150.21 217.817 151.44L217.914 151.465L218.006 151.427C219.886 150.634 221.439 149.225 222.41 147.432C223.38 145.638 223.71 143.568 223.346 141.562C221.534 131.886 217.497 122.763 211.553 114.914L208.167 110.453L219.935 84.8824L212.306 77.7388Z" fill="#00D1B2"/>
<path d="M236.991 119.368C244.54 119.368 250.659 113.252 250.659 105.707C250.659 98.1626 244.54 92.0463 236.991 92.0463C229.442 92.0463 223.323 98.1626 223.323 105.707C223.323 113.252 229.442 119.368 236.991 119.368Z" fill="#FFB6B6"/>
<path d="M225.858 93.9713C226.982 90.7029 232.578 88.4359 241.649 88.1207C250.72 87.8055 253.021 98.49 253.021 98.49C259.077 103.4 246.554 116.545 245.949 116.071L246.221 113.602C246.672 109.511 248.589 106.319 246.151 102.056L243.811 102.083L239.372 102.936C239.095 102.989 238.808 102.95 238.556 102.824C238.304 102.699 238.1 102.494 237.976 102.241C237.852 101.988 237.815 101.701 237.87 101.425C237.925 101.149 238.069 100.898 238.28 100.712L238.321 100.676L238.22 100.52C236.656 101.237 235.045 101.902 233.335 102.003C231.412 102.116 229.309 101.351 228.388 99.6593C228.142 99.1944 227.991 98.685 227.946 98.1611C225.352 99.1968 224.166 102.393 224.166 102.393C224.166 102.393 224.734 97.2397 225.858 93.9713Z" fill="#2F2E41"/>
<path d="M262.773 276.556L257.301 281.186L236.825 262.295L244.901 255.46L262.773 276.556Z" fill="#FFB6B6"/>
<path d="M268.66 280.675L251.016 295.608L250.827 295.385C249.285 293.564 248.529 291.206 248.727 288.829C248.924 286.452 250.058 284.25 251.879 282.709L251.879 282.708L253.032 277.537L261.115 274.892L262.656 273.589L268.66 280.675Z" fill="#2F2E41"/>
<path d="M228.955 224.319L233.478 214.516C233.428 205.575 225.939 198.313 217.01 198.873C212.037 199.185 207.381 201.965 205.457 210.227C200.51 231.471 249.049 275.681 249.049 275.681L257.968 270.172L258.379 264.353L253.384 261.276L253.38 256.312L248.617 254.054L228.955 224.319Z" fill="#2F2E41"/>
<path d="M258.669 221.62L253.079 213.404C252.394 204.488 259.26 196.635 268.205 196.46C273.186 196.362 278.055 198.75 280.652 206.826C287.33 227.592 242.593 275.641 242.593 275.641L233.251 270.884L232.362 265.117L237.087 261.64L236.683 256.693L241.244 254.052L258.669 221.62Z" fill="#2F2E41"/>
<path d="M146.131 293.417L139.445 293.416L136.264 267.64L146.132 267.64L146.131 293.417Z" fill="#A0616A"/>
<path d="M146.367 300.388L125.805 300.388V300.128C125.806 298.006 126.649 295.972 128.15 294.472C129.65 292.972 131.686 292.129 133.808 292.129H133.809L137.565 289.281L144.572 292.13L146.367 292.13L146.367 300.388Z" fill="#2F2E41"/>
<path d="M193.441 293.417L200.127 293.416L203.308 267.64L193.439 267.64L193.441 293.417Z" fill="#A0616A"/>
<path d="M193.205 300.388L213.767 300.388V300.128C213.767 298.006 212.923 295.972 211.422 294.472C209.922 292.972 207.886 292.129 205.764 292.129H205.763L202.007 289.281L195 292.13L193.205 292.13L193.205 300.388Z" fill="#2F2E41"/>
<path d="M135.97 248.698C136.069 247.227 136.854 239.093 136.854 239.093L138.734 221.842L142.049 176.115L142.265 173.122L159.628 169.79L171.495 164.104L185.6 168.611L196.583 172.727C196.583 172.727 196.602 174.489 196.686 176.618C196.799 179.405 196.996 182.821 197.467 183.709C198.252 185.279 198.054 193.704 198.054 193.704C198.054 193.704 198.835 210.847 199.817 212.726C200.8 214.606 200.997 218.52 200.701 219.305C200.405 220.09 201.684 240.676 201.684 240.676C201.684 240.676 204.966 277.108 202.907 282.601C200.848 288.094 193.066 284.496 193.066 284.496C193.066 284.496 193.442 283.03 191.185 282.339C188.929 281.648 182.055 229.991 182.055 229.991C182.055 229.991 180.776 219.399 179.601 216.363C178.425 213.328 177.344 204.799 177.344 204.799C177.344 204.799 170.085 190.683 169.991 187.544C169.991 187.544 169.041 184.607 168.143 187.84C167.245 191.073 164.598 198.817 164.598 198.817L162.017 208.328L158.979 222.538L157.014 234.502C157.014 234.502 154.071 250.38 153.601 251.066C153.131 251.752 153.601 266.258 153.601 266.258C153.601 266.258 151.325 278.612 148.109 280.769C144.893 282.926 136.373 280.804 136.373 280.804C136.373 280.804 135.871 250.169 135.97 248.698Z" fill="#2F2E41"/>
<path d="M143.377 125.421L147.237 135.523L142.474 140.45L144.572 142.325L143.025 144.976L138.99 172.761L161.107 180.049L168.554 171.936L174.426 180.049L200.017 174.616L193.491 139.183V136.867L191.649 132.394V122.925L200.111 94.7397L181.991 90.3195L175.047 85.5443L172.8 92.26L163.232 90.781L162.983 85.7363L155.662 91.7452L145.902 93.273L138.521 94.7397L137.58 96.782L139.461 96.3733L142.752 122.946L143.377 125.421Z" fill="#2F2E41"/>
<path d="M158.26 98.1465L162.983 85.7652L175.047 85.5444L179.05 98.1465L193.439 178.486C193.439 178.486 149.357 190.756 149.804 176.007C150.274 160.5 152.396 139.901 152.396 139.901L158.26 98.1465Z" fill="#3F3D56"/>
<path d="M168.745 82.3021C176.594 82.3021 182.957 75.9426 182.957 68.0978C182.957 60.253 176.594 53.8935 168.745 53.8935C160.896 53.8935 154.533 60.253 154.533 68.0978C154.533 75.9426 160.896 82.3021 168.745 82.3021Z" fill="#A0616A"/>
<path d="M153.695 57.7934C156.009 55.2764 158.903 50.6691 167.669 48.7343C178.5 46.3437 183.618 56.1232 180.887 56.2835C188.874 58.7009 183.743 75.221 181.453 73.8355C181.434 73.8218 181.415 73.8071 181.397 73.7914C180.165 72.885 179.132 71.7371 178.359 70.418C177.586 69.0988 177.091 67.6361 176.903 66.1191L176.468 62.2098C176.406 65.3906 173.153 65.8113 169.83 64.6399C170.027 63.9425 170.402 63.3084 170.918 62.8001C171.435 62.2918 172.075 61.9269 172.776 61.7414C170.743 63.6154 168.097 64.9561 164.401 65.3833C164.855 63.6282 165.759 62.3363 167.174 61.5706L167.042 61.4418C165.688 62.4718 164.277 63.4618 162.649 63.9282C160.817 64.453 158.622 64.1691 157.367 62.736C157.029 62.3405 156.774 61.8813 156.616 61.3856C156.888 63.9046 155.197 66.78 153.884 66.2863C152.792 66.0741 152.155 59.469 153.695 57.7934Z" fill="#2F2E41"/>
<path d="M186.268 67.3146L199.193 89.0481L208.746 84.5386C208.746 84.5386 192.285 63.9895 191.761 63.3983C191.985 62.3995 191.901 61.3561 191.519 60.4061C191.138 59.4562 190.477 58.6443 189.623 58.0781C188.77 57.5119 187.765 57.2179 186.741 57.2351C185.717 57.2523 184.722 57.5798 183.888 58.1743C183.054 58.7688 182.421 59.6023 182.071 60.5646C181.721 61.5268 181.672 62.5725 181.93 63.5632C182.188 64.5539 182.741 65.443 183.516 66.1128C184.29 66.7827 185.25 67.2018 186.268 67.3146V67.3146Z" fill="#A0616A"/>
<path d="M192.526 121.323L212.585 106.88C213.894 105.938 214.991 104.733 215.807 103.343C216.624 101.953 217.141 100.407 217.325 98.8059C217.51 97.2045 217.358 95.5821 216.88 94.0426C216.402 92.5031 215.607 91.0803 214.547 89.8652L200.111 73.3138L193.822 81.8314L198.67 91.9614L189.284 94.4351L192.526 121.323Z" fill="#2F2E41"/>
<path d="M158.097 69.3574L145.172 91.0909L135.619 86.5814C135.619 86.5814 152.08 66.0323 152.605 65.4411C152.38 64.4423 152.464 63.3989 152.846 62.4489C153.227 61.4989 153.889 60.6871 154.742 60.1209C155.595 59.5547 156.6 59.2607 157.624 59.2779C158.649 59.295 159.643 59.6226 160.477 60.2171C161.311 60.8116 161.945 61.6451 162.294 62.6074C162.644 63.5696 162.693 64.6153 162.435 65.606C162.177 66.5967 161.624 67.4858 160.849 68.1556C160.075 68.8255 159.115 69.2445 158.097 69.3574Z" fill="#A0616A"/>
<path d="M151.839 123.366L131.78 108.923C130.472 107.981 129.374 106.776 128.558 105.386C127.742 103.995 127.225 102.45 127.04 100.849C126.855 99.2472 127.007 97.6249 127.485 96.0854C127.964 94.5459 128.758 93.1231 129.818 91.9079L144.254 75.3566L150.543 83.8742L145.696 94.0042L155.082 96.4779L151.839 123.366Z" fill="#2F2E41"/>
<path d="M13.2555 77.5386C13.5636 77.994 13.968 78.3763 14.44 78.6586C14.912 78.941 15.4402 79.1164 15.9874 79.1727C16.5346 79.2289 17.0875 79.1645 17.6071 78.9841C18.1268 78.8036 18.6005 78.5115 18.9949 78.1283L30.9432 84.128L30.1292 77.231L18.9077 72.5909C18.2196 71.9714 17.3281 71.6256 16.402 71.6191C15.4759 71.6125 14.5796 71.9458 13.8829 72.5556C13.1862 73.1655 12.7376 74.0096 12.6219 74.9279C12.5063 75.8463 12.7317 76.7752 13.2555 77.5386V77.5386Z" fill="#9E616A"/>
<path d="M62.6852 105.377L56.7361 101.276C56.7361 101.276 49.9234 100.815 48.8988 98.6499C47.8742 96.4853 47.7015 97.2131 46.6093 96.9542C45.517 96.6952 44.9534 93.4371 43.1224 93.8215C39.003 94.6862 19.6296 81.8915 21.7205 80.2924L23.2748 73.7423C24.917 74.3551 26.6293 74.761 28.372 74.9505C31.0069 75.1908 37.2151 78.1998 38.1347 79.1865C39.0542 80.1732 40.6833 79.7906 42.8678 80.3084C45.0523 80.8262 45.8169 84.3383 49.44 83.4037C54.538 82.0888 80.9492 94.6092 83.8066 95.7779C86.9426 97.0606 89.1326 100.884 89.1326 100.884L88.2691 104.523L62.6852 105.377Z" fill="#00D1B2"/>
<path d="M105.62 291.409H110.805L113.272 271.421H105.619L105.62 291.409Z" fill="#9E616A"/>
<path d="M103.928 287.86L112.211 287.366V290.913L120.087 296.349C120.476 296.618 120.769 297.003 120.923 297.45C121.077 297.897 121.084 298.381 120.943 298.832C120.803 299.283 120.522 299.677 120.141 299.957C119.76 300.237 119.3 300.388 118.827 300.388H108.965L107.265 296.88L106.601 300.388H102.883L103.928 287.86Z" fill="#2F2E41"/>
<path d="M40.6345 287.007L45.4519 288.923L55.1409 271.264L48.0311 268.436L40.6345 287.007Z" fill="#9E616A"/>
<path d="M40.3757 283.084L48.2548 285.687L46.9422 288.982L52.2476 296.944C52.5097 297.337 52.6392 297.804 52.6171 298.276C52.5951 298.748 52.4226 299.2 52.125 299.567C51.8274 299.935 51.4202 300.197 50.9628 300.316C50.5054 300.436 50.0218 300.406 49.5827 300.231L40.42 296.586L40.139 292.697L38.224 295.712L34.7693 294.337L40.3757 283.084Z" fill="#2F2E41"/>
<path d="M95.1684 231.93L86.5223 191.603L73.0211 236.41L51.6427 278.899L51.5294 279.124L44.7575 275.48C43.8018 258.228 46.0716 242.061 54.3736 227.925L58.3047 189.123C58.4252 187.797 61.3576 156.671 70.643 151.151L73.3623 144.954L100.409 138.278L100.507 138.389C103.108 141.31 104.826 144.909 105.461 148.768L113.543 197.701L113.548 197.728L111.381 231.865L114.345 282.227H103.62C96.9846 269.749 94.1675 252.984 95.1684 231.93Z" fill="#2F2E41"/>
<path d="M118.451 62.7993C118.863 63.1633 119.191 63.6133 119.41 64.1174C119.629 64.6216 119.736 65.1677 119.721 65.7173C119.706 66.2669 119.571 66.8066 119.326 67.2984C119.08 67.7903 118.729 68.2222 118.298 68.5639L122.714 81.1783L115.976 79.4845L112.815 67.7653C112.289 67.0037 112.06 66.0756 112.173 65.1568C112.286 64.2381 112.731 63.3925 113.426 62.7804C114.121 62.1683 115.016 61.8321 115.942 61.8356C116.868 61.8391 117.761 62.182 118.451 62.7993H118.451Z" fill="#9E616A"/>
<path d="M65.3903 158.083C64.6619 158.083 64.2482 157.94 64.088 157.634C63.8529 157.185 64.2608 156.598 64.7331 155.918C65.0625 155.444 66.0247 154.502 65.5515 154.445C58.3768 153.569 61.8209 109.357 64.9302 103.513C65.562 102.326 64.8936 100.504 65.605 98.4891C67.5484 92.9859 70.201 91.2946 75.4856 87.9256C75.9145 87.6521 76.3612 87.3664 76.8256 87.0686C77.4264 86.6827 77.3929 85.4034 77.3575 84.0486C77.3183 82.5429 77.2775 80.9858 78.0155 80.0126L78.0636 79.9491L78.141 79.9311C79.9261 79.5186 85.93 78.7529 89.4856 79.9367L89.5347 79.9534L89.5714 79.9899C90.416 80.834 90.493 82.4692 90.5674 84.0503C90.6283 85.3485 90.686 86.5743 91.1639 87.1068C94.8171 91.1767 98.9603 91.0974 99.0024 91.0965L99.2076 91.0905L99.228 91.2946C101.789 96.167 99.7839 114.263 101.564 125.503C103.373 136.923 118.82 146.644 105.593 148.369C105.621 148.413 105.637 148.464 105.639 148.517C105.641 148.569 105.628 148.621 105.602 148.666C104.803 150.159 68.1356 158.083 65.3903 158.083Z" fill="#00D1B2"/>
<path d="M125.183 102.398L117.842 106.038C103.695 111.469 96.3023 110.146 92.5879 108.081C88.6247 105.878 87.9375 102.5 87.9106 102.358L87.9082 102.289L88.8137 95.1194C88.9288 94.2088 89.2362 93.333 89.7156 92.5501C90.195 91.7672 90.8355 91.095 91.5945 90.5783C92.3535 90.0615 93.2137 89.7119 94.1181 89.5526C95.0226 89.3933 95.9506 89.428 96.8406 89.6544L113.73 93.9503L113.422 85.756L114.09 82.8055L112.858 79.2191L113.363 72.0162L119.421 70.5342L125.776 81.9107L124.634 85.0504L125.71 86.6135L125.708 86.6859L125.183 102.398Z" fill="#00D1B2"/>
<path d="M330.475 300.865L0.524645 301C0.38575 301 0.252684 300.944 0.154612 300.846C0.0565407 300.748 0.00146484 300.614 0.00146484 300.476C0.00146484 300.337 0.0565407 300.204 0.154612 300.105C0.252684 300.007 0.38575 299.952 0.524645 299.951L330.475 299.816C330.614 299.816 330.747 299.872 330.845 299.97C330.943 300.068 330.998 300.201 330.998 300.34C330.998 300.479 330.943 300.612 330.845 300.711C330.747 300.809 330.614 300.864 330.475 300.865Z" fill="#CACACA"/>
<path d="M228.038 46.6754C232.097 38.0498 228.813 27.9666 222.948 25.2095C217.083 22.4524 207.217 26.3539 203.158 34.9795C199.401 42.9635 202.199 52.3149 207.017 55.7217C206.936 55.7455 206.86 55.7846 206.794 55.8369L205.636 56.7897C205.548 56.8624 205.48 56.9563 205.438 57.0627C205.396 57.1691 205.383 57.2844 205.398 57.3976C205.414 57.5108 205.458 57.6182 205.526 57.7095C205.595 57.8009 205.686 57.8732 205.79 57.9196L208.71 59.2162C208.814 59.2626 208.929 59.2816 209.043 59.2713C209.156 59.261 209.266 59.2217 209.36 59.1573C209.455 59.0929 209.531 59.0054 209.582 58.9032C209.633 58.801 209.657 58.6874 209.652 58.5733L209.584 57.0761C209.58 57.024 209.571 56.9725 209.555 56.9227C215.258 58.4891 224.273 54.6768 228.038 46.6754Z" fill="#CCCCCC"/>
<path d="M224.714 34.3046C225.635 36.9765 225.495 39.8999 224.322 42.4714C223.15 45.0429 221.034 47.0662 218.412 48.1238C217.814 48.3723 218.291 49.258 218.885 49.0111C221.695 47.8411 223.958 45.6525 225.222 42.8842C226.485 40.1159 226.654 36.9727 225.696 34.0848C225.493 33.4756 224.51 33.691 224.714 34.3046Z" fill="white"/>
<path d="M299.253 75.5774C307.466 70.7323 310.431 60.5506 307.137 54.9718C303.842 49.3929 293.491 47.0665 285.278 51.9115C277.676 56.3961 274.721 65.6996 276.784 71.2257C276.703 71.1998 276.619 71.1896 276.535 71.1955L275.041 71.3317C274.927 71.3421 274.818 71.3814 274.724 71.4459C274.629 71.5104 274.553 71.5979 274.502 71.7001C274.451 71.8024 274.427 71.9159 274.432 72.0301C274.438 72.1442 274.472 72.2551 274.532 72.3522L276.215 75.0665C276.275 75.1636 276.359 75.2437 276.459 75.2993C276.559 75.3548 276.671 75.3839 276.785 75.3838C276.9 75.3837 277.012 75.3544 277.112 75.2986C277.212 75.2429 277.296 75.1626 277.356 75.0653L278.143 73.7895C278.169 73.7445 278.19 73.6965 278.205 73.6465C282.037 78.1502 291.635 80.0718 299.253 75.5774Z" fill="#00D1B2"/>
<path d="M303.473 63.4825C302.73 66.2091 300.967 68.5464 298.55 70.0118C296.132 71.4772 293.244 71.959 290.481 71.3577C289.847 71.227 289.743 72.2273 290.372 72.3571C293.354 72.9713 296.457 72.4361 299.06 70.8589C301.664 69.2818 303.574 66.7792 304.409 63.8532C304.584 63.2357 303.65 62.8604 303.473 63.4825Z" fill="white"/>
<path d="M246.975 35.9596C245.941 33.6839 245.46 31.1956 245.574 28.6986C245.687 26.2016 246.391 23.767 247.627 21.5943C247.98 20.9822 248.331 20.2413 249.104 20.1237C249.396 20.0705 249.697 20.118 249.959 20.2583C250.22 20.3986 250.427 20.6234 250.544 20.896C250.647 21.2587 250.628 21.6452 250.49 21.996C250.352 22.3469 250.102 22.6425 249.779 22.8373C249.456 23.0321 249.078 23.1153 248.703 23.074C248.328 23.0328 247.977 22.8693 247.704 22.609C246.238 21.4288 246.424 19.352 246.565 17.6801C246.886 13.8707 246.881 9.87143 245.26 6.3259C243.76 3.0455 240.697 0.301645 236.998 0.00198011C236.351 -0.0504319 236.314 0.954583 236.958 1.00674C240.627 1.30395 243.497 4.32467 244.717 7.63072C245.405 9.62113 245.748 11.7147 245.73 13.8206C245.741 14.9016 245.691 15.9824 245.608 17.06C245.481 18.1103 245.448 19.1699 245.509 20.2261C245.682 21.9498 246.725 23.7979 248.59 24.0734C250.33 24.3303 252.029 22.5114 251.558 20.7831C251.445 20.4094 251.24 20.0697 250.963 19.7945C250.686 19.5193 250.345 19.3171 249.97 19.2061C249.595 19.095 249.199 19.0787 248.817 19.1584C248.434 19.2381 248.077 19.4115 247.778 19.6629C247.125 20.2082 246.7 21.1446 246.328 21.8928C245.202 24.144 244.596 26.619 244.555 29.1352C244.513 31.6515 245.037 34.1451 246.087 36.4323C246.363 37.0181 247.25 36.5439 246.975 35.9596L246.975 35.9596Z" fill="#CCCCCC"/>
<path d="M82.7563 79.1846C90.4465 79.1846 96.6806 72.9538 96.6806 65.2677C96.6806 57.5815 90.4465 51.3507 82.7563 51.3507C75.0661 51.3507 68.832 57.5815 68.832 65.2677C68.832 72.9538 75.0661 79.1846 82.7563 79.1846Z" fill="#2F2E41"/>
<path d="M83.8774 80.3333C89.4017 80.1769 93.7532 75.5741 93.5966 70.0527C93.4401 64.5312 88.8349 60.1821 83.3105 60.3385C77.7862 60.4949 73.4347 65.0978 73.5913 70.6192C73.7478 76.1406 78.353 80.4898 83.8774 80.3333Z" fill="#9E616A"/>
<path d="M83.6904 55.0831L79.634 55.198C77.0777 55.2725 74.6553 56.3576 72.8985 58.2151C71.1418 60.0727 70.1941 62.551 70.2636 65.1062L70.2661 65.1959L70.34 65.2422C72.5449 66.7003 75.1473 67.4403 77.7899 67.3607L78.0179 67.3543L80.2593 67.2528C80.6363 66.2825 80.7623 65.2329 80.6258 64.201C80.9643 65.1791 81.2285 66.1814 81.4162 67.1993L91.473 66.7417C92.0582 66.7127 92.6088 66.4564 93.0076 66.0273C93.4063 65.5982 93.6214 65.0305 93.6072 64.4451C93.5318 61.8901 92.4452 59.4694 90.5861 57.7142C88.7269 55.959 86.2469 55.0128 83.6904 55.0831Z" fill="#2F2E41"/>
<path d="M75.6073 52.5735C74.6918 53.702 73.2216 54.1722 71.9007 54.7833C69.5701 55.8849 67.5435 57.5381 65.9966 59.5995C64.4498 61.6609 63.4294 64.0683 63.0239 66.613C62.7127 68.6851 62.8215 70.818 62.2946 72.8444C61.771 74.8707 60.3896 76.8834 58.3367 77.2906C56.9475 77.5684 55.5329 77.0693 54.2048 76.5746C53.4744 76.305 52.744 76.0342 52.0136 75.7623C52.7133 73.8519 53.4118 71.9416 54.1092 70.0313C52.9529 71.8482 51.5958 73.5295 50.0637 75.0433C47.4461 74.0737 44.8263 73.1041 42.2041 72.1346C48.5832 71.9781 47.3193 65.8204 48.5703 59.5707C49.2579 56.1365 55.8714 53.6371 57.0889 50.3537C57.7466 48.573 58.901 47.0178 60.4154 45.8723C61.9298 44.7267 63.7409 44.0388 65.6342 43.8899C67.5276 43.741 69.4241 44.1374 71.0991 45.0321C72.7741 45.9269 74.1576 47.2825 75.0858 48.9385C76.4102 49.4229 76.5059 51.4594 75.6073 52.5735Z" fill="#2F2E41"/>
<path d="M76.245 56.7124C79.1086 56.7124 81.43 54.3922 81.43 51.5302C81.43 48.6681 79.1086 46.348 76.245 46.348C73.3814 46.348 71.0601 48.6681 71.0601 51.5302C71.0601 54.3922 73.3814 56.7124 76.245 56.7124Z" fill="#2F2E41"/>
</g>
<defs>
<clipPath id="clip0_35_292">
<rect width="331" height="301" fill="white"/>
</clipPath>
</defs>
</svg>
